<svg xmlns="http://www.w3.org/2000/svg" width="406" height="287.555" viewBox="0 0 406 287.555">
  <g id="Group_148" data-name="Group 148" transform="translate(-254 -2532.445)">
    <path id="Path_223" data-name="Path 223" d="M60,0H346a60,60,0,0,1,60,60v77a60,60,0,0,1-60,60H60A60,60,0,0,1,0,137V60A60,60,0,0,1,60,0Z" transform="translate(254 2623)" fill="#179654"/>
    <g id="Layer_x0020_1" transform="translate(-847.407 162.457)">
      <g id="_2084227438736" transform="translate(1425.883 2598.951)">
        <path id="Path_224" data-name="Path 224" d="M7236.636,7627.9a2.118,2.118,0,1,1-2.118-2.118A2.118,2.118,0,0,1,7236.636,7627.9Z" transform="translate(-7232.4 -7625.78)" fill="#4d69ff"/>
      </g>
      <g id="_2084227437904" transform="translate(1414.843 2625.153)">
        <path id="Path_225" data-name="Path 225" d="M6983.205,8229.348a2.118,2.118,0,1,1-2.117-2.118A2.116,2.116,0,0,1,6983.205,8229.348Z" transform="translate(-6978.97 -8227.229)" fill="rgba(158,191,255,0.47)"/>
      </g>
      <g id="_2084227435664" transform="translate(1164.236 2405.76)">
        <path id="Path_226" data-name="Path 226" d="M1229.642,3192.766a1.646,1.646,0,1,1-1.646-1.646A1.646,1.646,0,0,1,1229.642,3192.766Z" transform="translate(-1226.35 -3191.12)" fill="#9ebfff"/>
      </g>
      <g id="_2084227433104" transform="translate(1286.81 2383.45)">
        <path id="Path_227" data-name="Path 227" d="M4045.891,2681.936a2.936,2.936,0,1,1-2.936-2.936A2.936,2.936,0,0,1,4045.891,2681.936Z" transform="translate(-4040.02 -2679)" fill="#eb4f23"/>
      </g>
      <g id="_2084227432912" transform="translate(1163.115 2426.991)">
        <path id="Path_228" data-name="Path 228" d="M1206.154,3681.237a2.767,2.767,0,1,1-2.767-2.767A2.767,2.767,0,0,1,1206.154,3681.237Z" transform="translate(-1200.62 -3678.47)" fill="#9570ed"/>
      </g>
      <g id="_2084227434896" transform="translate(1185.977 2402.804)">
        <path id="Path_229" data-name="Path 229" d="M1727.5,3124.309a1.039,1.039,0,1,1-1.039-1.039A1.039,1.039,0,0,1,1727.5,3124.309Z" transform="translate(-1725.42 -3123.27)" fill="#1a1a24"/>
      </g>
      <g id="_2084227430896" transform="translate(1408.483 2395.966)">
        <path id="Path_230" data-name="Path 230" d="M6833.724,2969.316a1.646,1.646,0,1,1,2.282-.46A1.647,1.647,0,0,1,6833.724,2969.316Z" transform="translate(-6832.989 -2966.299)" fill="#9ebfff"/>
      </g>
      <g id="_2084227432400" transform="translate(1387.509 2379.268)">
        <path id="Path_231" data-name="Path 231" d="M6352.768,2588.083a2.767,2.767,0,1,1,3.836-.773,2.767,2.767,0,0,1-3.836.773Z" transform="translate(-6351.532 -2583.012)" fill="#ffc13f"/>
      </g>
      <g id="_2084227427472" transform="translate(1404.385 2430.152)">
        <path id="Path_232" data-name="Path 232" d="M6739.384,3752.935a1.039,1.039,0,1,1,1.44-.29,1.039,1.039,0,0,1-1.44.29Z" transform="translate(-6738.92 -3751.031)" fill="#1a1a24"/>
      </g>
      <g id="_2084287887696" transform="translate(1161.407 2369.988)">
        <g id="Group_94" data-name="Group 94">
          <g id="Group_79" data-name="Group 79" transform="translate(0 18.644)">
            <g id="Group_78" data-name="Group 78">
              <g id="Group_77" data-name="Group 77">
                <g id="Group_76" data-name="Group 76">
                  <path id="Path_233" data-name="Path 233" d="M1409.839,3012.954c11.766-14.109,19.91-33.653,19.673-52.252-.245-19.295-7.192-37.167-3.88-56.958,1.893-11.317,6.295-22.211,6.95-33.667,3.1-54.129-82.864-101.1-117.761-50.47-2.392,3.47-4.378,7.312-7.533,10.107a17.22,17.22,0,0,1-14.685,3.906c-8.291-1.725-15.246-8.226-23.288-11.049a78.052,78.052,0,0,0-22.615-4.3,87.559,87.559,0,0,0-44.266,10.215c-26.99,14.292-44.517,42.463-40.441,73.416,2.412,18.317,12.543,34.712,24.026,49.186,21.964,27.683,49.71,50.59,80.4,68.112,24.8,14.157,52.511,25.045,81.048,24.111a84.546,84.546,0,0,0,62.373-30.357Z" transform="translate(-1161.407 -2797.95)" fill="rgba(158,191,255,0.18)"/>
                </g>
              </g>
            </g>
          </g>
          <g id="Group_83" data-name="Group 83" transform="translate(2.407 20.894)">
            <g id="Group_82" data-name="Group 82">
              <g id="Group_81" data-name="Group 81">
                <g id="Group_80" data-name="Group 80">
                  <path id="Path_234" data-name="Path 234" d="M1481.3,3008.1c3.1-16.833.765-36.42-7.934-51.407-9.025-15.547-22.838-26.875-29.2-44.454-3.64-10.051-5.051-20.907-9.76-30.5-22.246-45.348-113.5-44.148-118.662,12.9-.354,3.911-.209,7.937-1.491,11.649a16.045,16.045,0,0,1-10.132,9.887c-7.518,2.392-16.136.3-23.955,1.685a72.7,72.7,0,0,0-20.321,6.856,81.58,81.58,0,0,0-31.254,28.539c-15.368,23.945-16.707,54.827.759,78.084,10.336,13.763,26.058,22.436,42,28.93,30.489,12.421,63.486,18.322,96.407,18.505,26.6.149,54.075-3.692,76.809-17.5A78.765,78.765,0,0,0,1481.3,3008.1Z" transform="translate(-1216.652 -2849.608)" fill="rgba(158,191,255,0.47)"/>
                </g>
              </g>
            </g>
          </g>
          <g id="Group_84" data-name="Group 84" transform="translate(4.893 231.934)">
            <path id="Path_235" data-name="Path 235" d="M1273.827,7709.772c-1.076,9.956,7.49,19.047,19.131,20.3s30.041-4.918,31.118-14.873-17.106-12.464-26.78-18.375c-13.492-8.245-22.394,2.987-23.47,12.942Z" transform="translate(-1273.736 -7693.971)" fill="rgba(158,191,255,0.22)"/>
          </g>
          <g id="Group_88" data-name="Group 88" transform="translate(63.231 66.039)">
            <g id="Group_87" data-name="Group 87">
              <g id="Group_86" data-name="Group 86">
                <g id="Group_85" data-name="Group 85">
                  <path id="Path_236" data-name="Path 236" d="M2786.469,3989.865c2.031-11.042.5-23.891-5.2-33.721-5.92-10.2-14.981-17.63-19.156-29.16-2.388-6.593-3.314-13.714-6.4-20.01-14.593-29.747-74.451-28.96-77.839,8.464-.232,2.565-.137,5.207-.978,7.642a10.523,10.523,0,0,1-6.646,6.485c-4.932,1.569-10.585.2-15.713,1.1a47.7,47.7,0,0,0-13.33,4.5,53.517,53.517,0,0,0-20.5,18.721c-10.081,15.707-10.959,35.965.5,51.221,6.78,9.028,17.094,14.717,27.55,18.977a170.425,170.425,0,0,0,63.24,12.139c17.449.1,35.471-2.422,50.385-11.482a51.669,51.669,0,0,0,24.1-34.878Z" transform="translate(-2612.87 -3885.897)" fill="rgba(158,191,255,0.47)"/>
                </g>
              </g>
            </g>
          </g>
          <g id="Group_89" data-name="Group 89" transform="translate(248.723 73.251)">
            <path id="Path_237" data-name="Path 237" d="M6878.251,4056.268a3.807,3.807,0,1,1-2.665-4.678A3.806,3.806,0,0,1,6878.251,4056.268Z" transform="translate(-6870.772 -4051.454)" fill="rgba(158,191,255,0.31)"/>
          </g>
          <g id="Group_90" data-name="Group 90" transform="translate(85.178)">
            <path id="Path_238" data-name="Path 238" d="M3143.369,2385.77a13.46,13.46,0,1,1-10.939-15.578A13.46,13.46,0,0,1,3143.369,2385.77Z" transform="translate(-3116.648 -2369.988)" fill="#179654"/>
          </g>
          <g id="Group_91" data-name="Group 91" transform="translate(267.955 126.64)">
            <path id="Path_239" data-name="Path 239" d="M7320.559,5281.892a4.181,4.181,0,1,1-3.4-4.839A4.181,4.181,0,0,1,7320.559,5281.892Z" transform="translate(-7312.259 -5276.99)" fill="rgba(158,191,255,0.31)"/>
          </g>
          <g id="Group_92" data-name="Group 92" transform="translate(259.359 9.281)">
            <path id="Path_240" data-name="Path 240" d="M7123.219,2587.931a4.181,4.181,0,1,1-3.4-4.839A4.181,4.181,0,0,1,7123.219,2587.931Z" transform="translate(-7114.919 -2583.029)" fill="#179654"/>
          </g>
          <g id="Group_93" data-name="Group 93" transform="translate(17.163 93.412)">
            <path id="Path_241" data-name="Path 241" d="M1560.325,4517.144a2.487,2.487,0,1,1-2.021-2.878A2.487,2.487,0,0,1,1560.325,4517.144Z" transform="translate(-1555.387 -4514.228)" fill="rgba(158,191,255,0.31)"/>
          </g>
        </g>
      </g>
      <g id="_2084287885936" transform="translate(1172.593 2466.398)">
        <g id="Group_96" data-name="Group 96" transform="translate(157.909 61.634)">
          <g id="Group_95" data-name="Group 95">
            <path id="Path_242" data-name="Path 242" d="M5066.191,6000.1l8.169-2.133a3.159,3.159,0,0,1,3.849,2.256l1.648,6.314a27.783,27.783,0,0,1,6.9.956l3.3-5.633a3.155,3.155,0,0,1,4.316-1.127l7.284,4.267a3.157,3.157,0,0,1,1.127,4.316l-3.3,5.634a27.758,27.758,0,0,1,4.211,5.556l6.313-1.649a3.158,3.158,0,0,1,3.85,2.255l2.133,8.169a3.158,3.158,0,0,1-2.256,3.849l-6.314,1.649a27.744,27.744,0,0,1-.957,6.9l5.633,3.3a3.157,3.157,0,0,1,1.127,4.316l-4.267,7.284a3.157,3.157,0,0,1-4.316,1.127l-5.634-3.3a27.735,27.735,0,0,1-5.556,4.21l1.649,6.314a3.159,3.159,0,0,1-2.254,3.85l-8.169,2.133a3.159,3.159,0,0,1-3.849-2.256l-1.648-6.314a27.742,27.742,0,0,1-6.905-.956l-3.3,5.633a3.158,3.158,0,0,1-4.316,1.127l-7.285-4.267a3.157,3.157,0,0,1-1.127-4.316l3.3-5.634a27.733,27.733,0,0,1-4.211-5.556l-6.314,1.649a3.157,3.157,0,0,1-3.849-2.254l-2.134-8.169a3.159,3.159,0,0,1,2.256-3.849l6.313-1.648a27.735,27.735,0,0,1,.958-6.905l-5.635-3.3a3.157,3.157,0,0,1-1.127-4.316l4.269-7.283a3.156,3.156,0,0,1,4.316-1.127l5.633,3.3a27.7,27.7,0,0,1,5.556-4.209l-1.649-6.314a3.159,3.159,0,0,1,2.255-3.85Zm21.247,9.079h0l-.537-.155a26.28,26.28,0,0,0-7.592-1.052l-.559,0-1.93-7.391a1.721,1.721,0,0,0-2.1-1.229l-8.169,2.133a1.722,1.722,0,0,0-1.229,2.1l1.93,7.391-.49.269a26.29,26.29,0,0,0-6.108,4.629l-.393.4-6.593-3.863a1.721,1.721,0,0,0-2.353.614l-4.268,7.283a1.722,1.722,0,0,0,.614,2.353l6.594,3.863-.156.538a26.321,26.321,0,0,0-1.053,7.591l.006.559-7.391,1.93a1.72,1.72,0,0,0-1.229,2.1l2.133,8.169a1.72,1.72,0,0,0,2.1,1.229l7.39-1.93.269.49a26.288,26.288,0,0,0,4.63,6.107l.4.393-3.864,6.594a1.722,1.722,0,0,0,.614,2.353l7.285,4.267a1.723,1.723,0,0,0,2.352-.614l3.863-6.593.537.155a26.287,26.287,0,0,0,7.592,1.052l.559,0,1.931,7.391a1.72,1.72,0,0,0,2.1,1.229l8.168-2.133a1.721,1.721,0,0,0,1.229-2.1l-1.93-7.391.49-.269a26.27,26.27,0,0,0,6.108-4.629l.393-.4,6.594,3.863a1.722,1.722,0,0,0,2.353-.615l4.267-7.284a1.721,1.721,0,0,0-.614-2.353l-6.593-3.864.155-.538a26.276,26.276,0,0,0,1.052-7.591l0-.559,7.391-1.931a1.72,1.72,0,0,0,1.229-2.1l-2.133-8.168a1.72,1.72,0,0,0-2.1-1.229l-7.391,1.93-.27-.49a26.288,26.288,0,0,0-4.629-6.107l-.4-.393,3.863-6.594a1.721,1.721,0,0,0-.614-2.353l-7.284-4.267a1.72,1.72,0,0,0-2.352.614l-3.864,6.594Zm-12.957,5.959h0a19.951,19.951,0,1,1-14.264,24.345A19.973,19.973,0,0,1,5074.481,6015.136Zm9.719,37.219h0a18.516,18.516,0,1,0-22.594-13.237,18.537,18.537,0,0,0,22.594,13.237Z" transform="translate(-5042.943 -5997.862)" fill="rgba(255,255,255,0.61)"/>
          </g>
        </g>
        <g id="Group_98" data-name="Group 98" transform="translate(0 0)">
          <g id="Group_97" data-name="Group 97">
            <path id="Path_243" data-name="Path 243" d="M1441.42,4585.3l8.169-2.133a3.159,3.159,0,0,1,3.849,2.256l1.649,6.314a27.745,27.745,0,0,1,6.9.957l3.3-5.634a3.157,3.157,0,0,1,4.316-1.127l7.283,4.267a3.157,3.157,0,0,1,1.127,4.316l-3.3,5.634a27.763,27.763,0,0,1,4.21,5.556l6.314-1.649a3.158,3.158,0,0,1,3.849,2.255l2.133,8.168a3.159,3.159,0,0,1-2.256,3.849l-6.314,1.649a27.757,27.757,0,0,1-.956,6.9l5.633,3.3a3.158,3.158,0,0,1,1.127,4.316l-4.267,7.283a3.157,3.157,0,0,1-4.316,1.127l-5.634-3.3a27.733,27.733,0,0,1-5.556,4.21l1.649,6.314a3.158,3.158,0,0,1-2.255,3.85l-8.169,2.133a3.158,3.158,0,0,1-3.849-2.256l-1.649-6.314a27.737,27.737,0,0,1-6.905-.956l-3.3,5.632a3.158,3.158,0,0,1-4.316,1.128l-7.284-4.268a3.156,3.156,0,0,1-1.127-4.316l3.3-5.634a27.744,27.744,0,0,1-4.211-5.555l-6.314,1.648a3.158,3.158,0,0,1-3.849-2.255l-2.133-8.168a3.158,3.158,0,0,1,2.256-3.849l6.314-1.648a27.745,27.745,0,0,1,.958-6.905l-5.635-3.3a3.156,3.156,0,0,1-1.127-4.316l4.268-7.283a3.156,3.156,0,0,1,4.316-1.127l5.633,3.3a27.664,27.664,0,0,1,5.556-4.21l-1.649-6.314a3.159,3.159,0,0,1,2.255-3.85Zm21.247,9.079h0l-.538-.156a26.292,26.292,0,0,0-7.591-1.052l-.559,0-1.93-7.391a1.721,1.721,0,0,0-2.1-1.229l-8.169,2.133a1.721,1.721,0,0,0-1.229,2.1l1.93,7.392-.49.269a26.283,26.283,0,0,0-6.108,4.629l-.393.4-6.592-3.863a1.72,1.72,0,0,0-2.353.614l-4.268,7.284a1.721,1.721,0,0,0,.614,2.352l6.594,3.864-.156.538a26.3,26.3,0,0,0-1.052,7.591l.006.559-7.39,1.93a1.721,1.721,0,0,0-1.229,2.1l2.133,8.169a1.721,1.721,0,0,0,2.1,1.229l7.39-1.93.269.49a26.318,26.318,0,0,0,4.629,6.107l.4.392-3.863,6.594a1.722,1.722,0,0,0,.614,2.353l7.285,4.267a1.722,1.722,0,0,0,2.353-.614l3.862-6.593.538.156a26.284,26.284,0,0,0,7.592,1.051l.559,0,1.93,7.392a1.721,1.721,0,0,0,2.1,1.229l8.169-2.133a1.721,1.721,0,0,0,1.229-2.1l-1.93-7.391.49-.27a26.273,26.273,0,0,0,6.108-4.629l.393-.4,6.594,3.863a1.722,1.722,0,0,0,2.353-.614l4.267-7.283a1.72,1.72,0,0,0-.614-2.353l-6.593-3.864.156-.537a26.279,26.279,0,0,0,1.052-7.591l0-.559,7.391-1.93a1.72,1.72,0,0,0,1.229-2.1l-2.133-8.169a1.721,1.721,0,0,0-2.1-1.229l-7.391,1.93-.269-.49a26.276,26.276,0,0,0-4.629-6.108l-.4-.393,3.863-6.594a1.721,1.721,0,0,0-.614-2.353l-7.283-4.267a1.722,1.722,0,0,0-2.353.614l-3.864,6.593Zm-12.957,5.959h0a19.951,19.951,0,1,1-14.264,24.344,19.974,19.974,0,0,1,14.264-24.344Zm9.719,37.218h0a18.516,18.516,0,1,0-22.594-13.236,18.536,18.536,0,0,0,22.594,13.236Z" transform="translate(-1418.173 -4583.063)" fill="rgba(255,255,255,0.61)"/>
          </g>
        </g>
        <g id="Group_99" data-name="Group 99" transform="translate(186.384 21.472)">
          <path id="Path_244" data-name="Path 244" d="M5697.617,5095.5l3.905.959a15.339,15.339,0,0,0,.678,4.421l-3.442,2.083a1.385,1.385,0,0,0-.467,1.9l2.483,4.1a1.385,1.385,0,0,0,1.9.467l3.441-2.084a15.348,15.348,0,0,0,3.6,2.649l-.96,3.905a1.385,1.385,0,0,0,1.014,1.675l4.657,1.145a1.384,1.384,0,0,0,1.675-1.014l.959-3.906a15.33,15.33,0,0,0,4.42-.678l2.084,3.441a1.385,1.385,0,0,0,1.9.467l4.1-2.483a1.385,1.385,0,0,0,.467-1.9l-2.084-3.442a15.336,15.336,0,0,0,2.649-3.6l3.905.96a1.384,1.384,0,0,0,1.675-1.015l1.144-4.657a1.384,1.384,0,0,0-1.014-1.674l-3.905-.96a15.352,15.352,0,0,0-.678-4.42l3.441-2.083a1.384,1.384,0,0,0,.467-1.9l-2.483-4.1a1.385,1.385,0,0,0-1.9-.467l-3.441,2.084a15.359,15.359,0,0,0-3.6-2.649l.959-3.905a1.385,1.385,0,0,0-1.014-1.675l-4.657-1.144a1.383,1.383,0,0,0-1.674,1.014l-.96,3.905a15.355,15.355,0,0,0-4.421.678l-2.084-3.441a1.384,1.384,0,0,0-1.9-.467l-4.1,2.483a1.384,1.384,0,0,0-.467,1.9l2.083,3.442a15.355,15.355,0,0,0-2.649,3.6l-3.905-.959a1.384,1.384,0,0,0-1.675,1.014l-1.145,4.657a1.384,1.384,0,0,0,1.014,1.674Zm21.957-9.75h0a10.926,10.926,0,1,1-13.217,8A10.925,10.925,0,0,1,5719.574,5085.749Z" transform="translate(-5696.563 -5075.954)" fill="rgba(255,255,255,0.61)"/>
        </g>
        <g id="Group_100" data-name="Group 100" transform="translate(220.645 50.05)">
          <path id="Path_245" data-name="Path 245" d="M6497.341,5763.948a1.314,1.314,0,0,1-.326-.04l-3.585-.88a1.37,1.37,0,0,1-1-1.655l.683-2.78a12.084,12.084,0,0,1-2.467-1.813l-2.449,1.483a1.37,1.37,0,0,1-1.878-.462l-1.912-3.157a1.368,1.368,0,0,1,.462-1.879l2.449-1.482a12.142,12.142,0,0,1-.464-3.026l-2.779-.683a1.367,1.367,0,0,1-1-1.655l.881-3.583a1.368,1.368,0,0,1,1.654-1l2.779.683a12.132,12.132,0,0,1,1.813-2.467l-1.482-2.449a1.366,1.366,0,0,1,.462-1.878l3.157-1.912a1.37,1.37,0,0,1,1.878.462l1.482,2.449a12.09,12.09,0,0,1,3.026-.465l.683-2.779a1.366,1.366,0,0,1,1.654-1l3.584.88a1.37,1.37,0,0,1,1,1.655l-.683,2.779a12.043,12.043,0,0,1,2.466,1.813l2.45-1.482a1.368,1.368,0,0,1,1.878.462l1.911,3.156a1.368,1.368,0,0,1-.461,1.878l-2.449,1.482a12.113,12.113,0,0,1,.464,3.027l2.778.683a1.367,1.367,0,0,1,1,1.654l-.88,3.584a1.368,1.368,0,0,1-1.655,1l-2.78-.684a12.071,12.071,0,0,1-1.813,2.467l1.482,2.449a1.369,1.369,0,0,1-.461,1.879l-3.157,1.911a1.37,1.37,0,0,1-1.878-.462l-1.483-2.449a12.134,12.134,0,0,1-3.026.464l-.683,2.779a1.369,1.369,0,0,1-1.328,1.041Zm-6.608-7.928h0l.168.166a11.49,11.49,0,0,0,2.7,1.987l.208.11-.795,3.235a.765.765,0,0,0,.559.923l3.585.88a.762.762,0,0,0,.922-.558l.794-3.235h.236a11.542,11.542,0,0,0,3.316-.509l.225-.068,1.727,2.851a.764.764,0,0,0,1.047.257l3.157-1.911a.762.762,0,0,0,.257-1.048l-1.726-2.851.166-.168a11.494,11.494,0,0,0,1.986-2.7l.111-.208,3.235.794a.764.764,0,0,0,.923-.56l.88-3.583a.764.764,0,0,0-.559-.923l-3.234-.794v-.236a11.546,11.546,0,0,0-.508-3.315l-.07-.226,2.851-1.726a.762.762,0,0,0,.257-1.048l-1.912-3.157a.762.762,0,0,0-1.047-.257l-2.851,1.726-.168-.166a11.487,11.487,0,0,0-2.7-1.986l-.208-.111.795-3.235a.766.766,0,0,0-.559-.923l-3.585-.88a.763.763,0,0,0-.923.559l-.794,3.235h-.236a11.507,11.507,0,0,0-3.314.509l-.226.069-1.726-2.851a.765.765,0,0,0-1.048-.258l-3.157,1.912a.764.764,0,0,0-.258,1.048l1.726,2.85-.166.168a11.524,11.524,0,0,0-1.986,2.7l-.111.208-3.235-.794a.764.764,0,0,0-.923.559l-.881,3.584a.765.765,0,0,0,.559.923l3.235.795v.235a11.55,11.55,0,0,0,.508,3.315l.069.226-2.85,1.726a.758.758,0,0,0-.345.472.751.751,0,0,0,.088.576l1.912,3.157a.765.765,0,0,0,1.048.258l2.85-1.727Zm8.305.635h0a8.712,8.712,0,1,1,8.458-6.634,8.655,8.655,0,0,1-8.458,6.634Zm-.015-16.821h0a8.134,8.134,0,1,0,1.949.238A8.152,8.152,0,0,0,6499.022,5739.834Z" transform="translate(-6483.031 -5731.937)" fill="rgba(77,105,255,0.61)"/>
        </g>
      </g>
      <g id="_2084287881968" transform="translate(1191.493 2419.406)">
        <g id="Group_101" data-name="Group 101">
          <path id="Path_246" data-name="Path 246" d="M1992.457,3664.31l-65.352,28.17a10.753,10.753,0,0,1-14.131-5.618l-60.056-139.323a10.753,10.753,0,0,1,5.618-14.131l65.353-28.171a10.753,10.753,0,0,1,14.131,5.618l60.056,139.322a10.753,10.753,0,0,1-5.618,14.131Z" transform="translate(-1852.037 -3504.356)" fill="#28282f"/>
        </g>
        <g id="Group_102" data-name="Group 102" transform="translate(6.736 6.965)">
          <path id="Path_247" data-name="Path 247" d="M2132.228,3812.21,2076.57,3836.2a10.753,10.753,0,0,1-14.131-5.618l-54.893-127.344a10.754,10.754,0,0,1,5.618-14.131l55.657-23.991a10.753,10.753,0,0,1,14.131,5.618l54.892,127.344A10.753,10.753,0,0,1,2132.228,3812.21Z" transform="translate(-2006.666 -3664.236)" fill="#fff"/>
        </g>
        <g id="Group_104" data-name="Group 104" transform="translate(21.323 10.167)">
          <path id="Path_249" data-name="Path 249" d="M2381.909,3747.582l-33.045,14.244a4.165,4.165,0,0,1-5.474-2.177l-1.88-4.122,40.681-17.787,1.895,4.367a4.166,4.166,0,0,1-2.177,5.474Z" transform="translate(-2341.51 -3737.74)" fill="#28282f"/>
        </g>
        <path id="Path_250" data-name="Path 250" d="M2541.394,4093.976a2.16,2.16,0,1,1,.852-.177A2.142,2.142,0,0,1,2541.394,4093.976Zm-.005-3.715h0a1.555,1.555,0,1,0,1.43.939A1.556,1.556,0,0,0,2541.389,4090.261Z" transform="translate(-2509.294 -4064.158)" fill="#fff"/>
        <path id="Path_251" data-name="Path 251" d="M2700.733,3887.342a1.691,1.691,0,0,1-1.574-2.317,1.676,1.676,0,0,1,.9-.93l15.819-6.819a1.693,1.693,0,0,1,1.34,3.109L2701.4,3887.2A1.674,1.674,0,0,1,2700.733,3887.342Zm15.814-9.6h0a1.066,1.066,0,0,0-.427.089l-15.82,6.819a1.088,1.088,0,0,0,.861,2l15.819-6.819a1.088,1.088,0,0,0-.433-2.086Z" transform="translate(-2662.139 -3860.898)" fill="#fff"/>
        <g id="Group_105" data-name="Group 105" transform="translate(26.194 20.887)">
          <path id="Path_252" data-name="Path 252" d="M2513.34,3983.81l-60.03,68.177,7.215,16.738,58.351-72.07Z" transform="translate(-2453.31 -3983.81)" fill="rgba(255,255,255,0.18)"/>
        </g>
        <g id="Group_106" data-name="Group 106" transform="translate(40.677 43.643)">
          <path id="Path_253" data-name="Path 253" d="M2840.987,4506.17l-55.227,79.32,7.215,16.738,53.782-82.671Z" transform="translate(-2785.76 -4506.17)" fill="rgba(255,255,255,0.1)"/>
        </g>
      </g>
      <g id="_2084287873744" transform="translate(1276.772 2388.555)">
        <g id="Group_112" data-name="Group 112" transform="translate(0 0)">
          <g id="Group_107" data-name="Group 107" transform="translate(1.431 3.304)">
            <path id="Path_254" data-name="Path 254" d="M3895.734,2907.677a27.247,27.247,0,1,1-17.835-34.412,27.408,27.408,0,0,1,17.835,34.412Z" transform="translate(-3842.436 -2872.044)" fill="#2f56f6"/>
          </g>
          <g id="Group_108" data-name="Group 108">
            <path id="Path_255" data-name="Path 255" d="M3862.884,2831.827a27.247,27.247,0,1,1-17.835-34.412,27.408,27.408,0,0,1,17.835,34.412Z" transform="translate(-3809.585 -2796.193)" fill="#4d69ff"/>
          </g>
          <path id="Path_256" data-name="Path 256" d="M3995.425,2969.861a20.944,20.944,0,1,1-13.709-26.451A21.067,21.067,0,0,1,3995.425,2969.861Z" transform="translate(-3948.146 -2936.099)" fill="rgba(255,255,255,0.93)"/>
          <g id="Group_109" data-name="Group 109" transform="translate(27.019 12.306)">
            <path id="Path_257" data-name="Path 257" d="M4430.5,3092.469a1.015,1.015,0,0,1-.668-1.272l3.667-11.8a1.016,1.016,0,1,1,1.94.6l-3.667,11.8A1.016,1.016,0,0,1,4430.5,3092.469Z" transform="translate(-4429.79 -3078.684)" fill="#9ebfff"/>
          </g>
          <g id="Group_110" data-name="Group 110" transform="translate(27.187 27.183)">
            <path id="Path_258" data-name="Path 258" d="M4433.706,3420.877a1.016,1.016,0,0,1,1.271-.668l9.095,2.827a1.016,1.016,0,0,1-.6,1.94l-9.1-2.827a1.015,1.015,0,0,1-.668-1.271Z" transform="translate(-4433.66 -3420.163)" fill="#9ebfff"/>
          </g>
          <g id="Group_111" data-name="Group 111" transform="translate(24.23 24.466)">
            <path id="Path_259" data-name="Path 259" d="M4371.743,3361.787a3.047,3.047,0,1,1-1.994-3.848,3.065,3.065,0,0,1,1.994,3.848Z" transform="translate(-4365.782 -3357.802)" fill="#1a1a24"/>
          </g>
        </g>
        <g id="Group_123" data-name="Group 123" transform="translate(7.542 11.217)">
          <g id="Group_113" data-name="Group 113">
            <path id="Path_260" data-name="Path 260" d="M4040.1,3212.188l-51.3-17.788a9.071,9.071,0,0,1-5.6-11.542l42.681-123.087a9.07,9.07,0,0,1,11.542-5.6l51.3,17.787a9.07,9.07,0,0,1,5.6,11.542l-42.682,123.087a9.071,9.071,0,0,1-11.542,5.6Z" transform="translate(-3982.699 -3053.67)" fill="#0f0f11"/>
          </g>
          <g id="Group_114" data-name="Group 114" transform="translate(2.586 1.988)">
            <path id="Path_261" data-name="Path 261" d="M4096.022,3253.426l-48.284-16.743a8.7,8.7,0,0,1-5.165-11.166l41.676-120.19a8.7,8.7,0,0,1,10.969-5.572L4143.5,3116.5a8.7,8.7,0,0,1,5.165,11.166l-41.677,120.19a8.7,8.7,0,0,1-10.969,5.572Z" transform="translate(-4042.064 -3099.299)" fill="#28282f"/>
          </g>
          <g id="Group_115" data-name="Group 115" transform="translate(7.262 16.09)">
            <path id="Path_262" data-name="Path 262" d="M4209.763,3550.757l-60.363-20.931,37.039-106.816,60.363,20.931Z" transform="translate(-4149.4 -3423.01)" fill="#fff"/>
          </g>
          <g id="Group_117" data-name="Group 117" transform="translate(70.559 14.018)">
            <g id="Group_116" data-name="Group 116">
              <path id="Path_263" data-name="Path 263" d="M5758.224,3377.639a1.1,1.1,0,1,1,.476-.111,1.084,1.084,0,0,1-.476.111Zm0-1.579h0a.489.489,0,0,0-.458.328.485.485,0,0,0,.3.618.485.485,0,0,0,.618-.3h0a.486.486,0,0,0-.3-.619.475.475,0,0,0-.16-.027Z" transform="translate(-5750.39 -3375.455)" fill="rgba(255,255,255,0.89)"/>
              <path id="Path_264" data-name="Path 264" d="M5614.625,3427.175a.837.837,0,0,1-.27-.045h0l-11.427-3.963a.828.828,0,0,1-.089-1.528.82.82,0,0,1,.633-.037l11.427,3.962a.829.829,0,0,1,.512,1.054.832.832,0,0,1-.785.557Zm-.072-.617h0a.226.226,0,0,0,.286-.138.229.229,0,0,0-.011-.17.218.218,0,0,0-.128-.114l-11.427-3.963a.224.224,0,0,0-.284.138.224.224,0,0,0,.138.284l11.427,3.962h0Z" transform="translate(-5602.372 -3419.546)" fill="rgba(255,255,255,0.89)"/>
            </g>
          </g>
          <g id="Group_120" data-name="Group 120" transform="translate(12.404 20.289)">
            <g id="Group_119" data-name="Group 119">
              <g id="Group_118" data-name="Group 118">
                <path id="Path_265" data-name="Path 265" d="M4321.4,3637.992l-53.98-18.718,34.628-99.864,53.981,18.718Z" transform="translate(-4267.42 -3519.41)" fill="rgba(158,191,255,0.41)"/>
              </g>
            </g>
          </g>
          <path id="Path_266" data-name="Path 266" d="M4596.339,6198.63a2.484,2.484,0,0,1-.812-.137l-12.073-4.187a2.477,2.477,0,0,1-1.526-3.147l.073-.211a2.475,2.475,0,0,1,3.147-1.527l12.073,4.187a2.477,2.477,0,0,1,1.527,3.147l-.073.21a2.478,2.478,0,0,1-2.335,1.665Zm-13.841-7.273h0a1.869,1.869,0,0,0,1.154,2.377l12.073,4.187a1.869,1.869,0,0,0,2.378-1.154l.073-.21a1.87,1.87,0,0,0-1.153-2.377l-12.073-4.186a1.868,1.868,0,0,0-2.377,1.153Z" transform="translate(-4555.692 -6052.684)" fill="#fff"/>
          <g id="Group_121" data-name="Group 121" transform="translate(36.352 25.991)">
            <path id="Path_267" data-name="Path 267" d="M4821.656,3650.28l51.756,45.753-6.118,17.645-50.154-51.269Z" transform="translate(-4817.14 -3650.28)" fill="rgba(255,255,255,0.18)"/>
          </g>
          <g id="Group_122" data-name="Group 122" transform="translate(31.515 48.265)">
            <path id="Path_268" data-name="Path 268" d="M4707.693,4161.57l51.756,45.753-6.118,17.645-47.211-59.173Z" transform="translate(-4706.12 -4161.57)" fill="rgba(255,255,255,0.18)"/>
          </g>
        </g>
      </g>
      <g id="_2084287911824" transform="translate(1173.073 2397.294)">
        <g id="Group_126" data-name="Group 126" transform="translate(37.464)">
          <g id="Group_124" data-name="Group 124" transform="translate(0 0.042)">
            <path id="Path_269" data-name="Path 269" d="M2312.937,3024.3l-15.717,1.479a6.128,6.128,0,0,1-6.646-5.523l-1.349-14.339a6.128,6.128,0,0,1,5.5-6.666l15.717-1.479a6.129,6.129,0,0,1,6.646,5.523l1.349,14.34a6.128,6.128,0,0,1-5.5,6.666Z" transform="translate(-2289.198 -2997.745)" fill="#2f56f6"/>
          </g>
          <g id="Group_125" data-name="Group 125" transform="translate(2.109)">
            <path id="Path_270" data-name="Path 270" d="M2359.5,3021.207l-14.5,1.364a5.645,5.645,0,0,1-6.13-5.076l-1.24-13.184a5.644,5.644,0,0,1,5.076-6.13l14.5-1.364a5.645,5.645,0,0,1,6.13,5.076l1.24,13.184a5.644,5.644,0,0,1-5.076,6.13Z" transform="translate(-2337.601 -2996.791)" fill="#4d69ff"/>
          </g>
          <path id="Path_271" data-name="Path 271" d="M2529.2,3153.392a.374.374,0,0,1-.107-.009l-.16-.069-.022-.176a5.9,5.9,0,0,1,2.44-5.476,4.448,4.448,0,1,1,5.646-.652,5.9,5.9,0,0,1,3.624,4.777l.02.173-.142.106C2540.266,3152.242,2530.372,3153.392,2529.2,3153.392Zm4.59-13.3h0a3.973,3.973,0,0,0-.449.026,3.841,3.841,0,0,0-1.275,7.253l.5.249-.479.282a5.3,5.3,0,0,0-2.6,4.887c1.5-.113,9.012-.979,10.493-1.211a5.3,5.3,0,0,0-3.642-4.168l-.531-.166.427-.356a3.841,3.841,0,0,0-2.445-6.8Z" transform="translate(-2518.434 -3133.275)" fill="#fff"/>
        </g>
        <g id="Group_133" data-name="Group 133" transform="translate(117.459 175.834)">
          <g id="Group_132" data-name="Group 132">
            <path id="Path_272" data-name="Path 272" d="M4170.015,7044l-34.628-10.91a1.519,1.519,0,0,0-1.9.992l-1.172,3.721-.574,1.822-5.643,17.912-.49,1.555-.075.237a1.517,1.517,0,0,0,.993,1.9l34.627,10.91a1.519,1.519,0,0,0,1.905-.992l.094-.3.439-1.4,6.108-19.389.571-1.814.741-2.35a1.519,1.519,0,0,0-.992-1.905Z" transform="translate(-4125.457 -7033.022)" fill="#fff"/>
            <g id="Group_131" data-name="Group 131" transform="translate(0 0)">
              <g id="Group_127" data-name="Group 127" transform="translate(6.852)">
                <path id="Path_273" data-name="Path 273" d="M4294.993,7049.826l3.169,3.189a.783.783,0,0,0,.721.216l19.985-4.611,1.5-.347a.844.844,0,0,1,.324-.011l.74-2.35a1.519,1.519,0,0,0-.992-1.905l-34.628-10.91a1.519,1.519,0,0,0-1.9.993l-1.172,3.721.769.754,11.484,11.262Z" transform="translate(-4282.74 -7033.027)" fill="#4d69ff"/>
              </g>
              <g id="Group_128" data-name="Group 128" transform="translate(0.635 6.605)">
                <path id="Path_274" data-name="Path 274" d="M4145.684,7184.641l-5.644,17.912,16.911-6.863Z" transform="translate(-4140.04 -7184.641)" fill="#4d69ff"/>
              </g>
              <g id="Group_129" data-name="Group 129" transform="translate(28.149 17.05)">
                <path id="Path_275" data-name="Path 275" d="M4781.589,7443.788l6.109-19.389-16.088,3.712Z" transform="translate(-4771.61 -7424.399)" fill="#4d69ff"/>
              </g>
              <g id="Group_130" data-name="Group 130" transform="translate(0 18.942)">
                <path id="Path_276" data-name="Path 276" d="M4162.225,7486.357l-10.378-16.3-3.027.7a2.523,2.523,0,0,1-1.281-.059,2.476,2.476,0,0,1-1.014-.619l-2.232-2.247a.816.816,0,0,1-.172.1l-17.66,7.167a.836.836,0,0,1-.857-.133l-.074.236a1.519,1.519,0,0,0,.992,1.905l34.627,10.91a1.52,1.52,0,0,0,1.905-.993l.093-.3a.837.837,0,0,1-.922-.364Z" transform="translate(-4125.457 -7467.83)" fill="#4d69ff"/>
              </g>
            </g>
          </g>
        </g>
        <g id="Group_136" data-name="Group 136" transform="translate(112.638 66.325)">
          <g id="Group_134" data-name="Group 134" transform="translate(0.582 1.526)">
            <path id="Path_277" data-name="Path 277" d="M4054.614,4577.268l-13.377,5.766a5.644,5.644,0,0,1-7.4-2.94l-5.242-12.161a5.645,5.645,0,0,1,2.94-7.4l13.377-5.766a5.645,5.645,0,0,1,7.4,2.94l5.242,12.161a5.645,5.645,0,0,1-2.94,7.4Z" transform="translate(-4028.142 -4554.313)" fill="#e6ae38"/>
          </g>
          <g id="Group_135" data-name="Group 135">
            <path id="Path_278" data-name="Path 278" d="M4041.254,4542.228l-13.377,5.766a5.644,5.644,0,0,1-7.4-2.941l-5.242-12.16a5.645,5.645,0,0,1,2.94-7.4l13.377-5.767a5.644,5.644,0,0,1,7.4,2.94l5.242,12.161A5.645,5.645,0,0,1,4041.254,4542.228Z" transform="translate(-4014.782 -4519.272)" fill="#ffc13f"/>
          </g>
          <path id="Path_279" data-name="Path 279" d="M4247.407,4748.92a5.019,5.019,0,1,1,1.98-.41A5.028,5.028,0,0,1,4247.407,4748.92Zm-.008-9.438h0a4.427,4.427,0,1,0,1.632.315,4.412,4.412,0,0,0-1.632-.315Z" transform="translate(-4232.465 -4729.31)" fill="#fff"/>
        </g>
        <g id="Group_141" data-name="Group 141" transform="translate(189.633 50.898)">
          <g id="Group_137" data-name="Group 137" transform="translate(0 2.12)">
            <path id="Path_280" data-name="Path 280" d="M5810.33,4250.611l-20.779-1.827a8.082,8.082,0,0,1-7.322-8.734l1.66-18.891a8.083,8.083,0,0,1,8.734-7.322l20.779,1.826a8.084,8.084,0,0,1,7.323,8.734l-1.661,18.891a8.082,8.082,0,0,1-8.734,7.322Z" transform="translate(-5782.197 -4213.807)" fill="#815dd6"/>
          </g>
          <g id="Group_138" data-name="Group 138" transform="translate(2.49)">
            <path id="Path_281" data-name="Path 281" d="M5867.48,4201.941l-20.779-1.827a8.082,8.082,0,0,1-7.323-8.734l1.661-18.891a8.083,8.083,0,0,1,8.734-7.322l20.779,1.826a8.084,8.084,0,0,1,7.323,8.734l-1.66,18.89A8.083,8.083,0,0,1,5867.48,4201.941Z" transform="translate(-5839.347 -4165.137)" fill="#9570ed"/>
          </g>
          <g id="Group_140" data-name="Group 140" transform="translate(11.941 7.01)">
            <g id="Group_139" data-name="Group 139">
              <path id="Path_282" data-name="Path 282" d="M6180.653,4722.761c-.129,0-.257-.006-.388-.018a4.132,4.132,0,0,1-3.718-3.7l-.036-.365,8.2.773-.1.352a4.133,4.133,0,0,1-3.956,2.955Zm-3.447-3.407h0a3.521,3.521,0,0,0,6.7.631l-6.7-.631Z" transform="translate(-6171.274 -4701.576)" fill="#fff"/>
              <path id="Path_283" data-name="Path 283" d="M6071.694,4344.7c-.125,0-.249-.005-.375-.018l-11.477-1.082a3.907,3.907,0,0,1-.2-7.756l.352-3.729a6.7,6.7,0,0,1,13.332,1.257l-.352,3.73a3.907,3.907,0,0,1-1.276,7.6Zm-5.042-18.046h0a6.1,6.1,0,0,0-6.059,5.519l-.4,4.228-.253.02a3.3,3.3,0,0,0-.042,6.579l11.478,1.082a3.3,3.3,0,0,0,1.188-6.471l-.245-.067.4-4.227a6.1,6.1,0,0,0-5.492-6.635C6067.035,4326.66,6066.842,4326.651,6066.651,4326.651Z" transform="translate(-6056.3 -4326.045)" fill="#fff"/>
            </g>
          </g>
        </g>
        <g id="Group_144" data-name="Group 144" transform="translate(0 107.859)">
          <g id="Group_142" data-name="Group 142" transform="translate(0 0.663)">
            <path id="Path_284" data-name="Path 284" d="M1525.713,5530.091l-74.224,32.586a6.694,6.694,0,0,1-8.82-3.439l-12.892-29.365a6.694,6.694,0,0,1,3.438-8.82l74.224-32.585a6.694,6.694,0,0,1,8.82,3.438l12.892,29.366a6.693,6.693,0,0,1-3.438,8.819Z" transform="translate(-1429.211 -5487.9)" fill="#2f56f6"/>
          </g>
          <g id="Group_143" data-name="Group 143" transform="translate(1.904)">
            <path id="Path_285" data-name="Path 285" d="M1567.625,5510.608l-75.483,33.139a4.6,4.6,0,0,1-6.068-2.365l-12.78-29.11a4.605,4.605,0,0,1,2.365-6.068l75.483-33.139a4.6,4.6,0,0,1,6.068,2.365l12.78,29.11A4.605,4.605,0,0,1,1567.625,5510.608Z" transform="translate(-1472.906 -5472.676)" fill="#4d69ff"/>
          </g>
          <path id="Path_286" data-name="Path 286" d="M1747.762,6160.021l-22.28,9.782-9.782-22.281,22.281-9.782Z" transform="translate(-1703.219 -6108.768)" fill="rgba(255,255,255,0.44)"/>
          <path id="Path_287" data-name="Path 287" d="M2437.857,5838.058a.605.605,0,0,1-.244-1.16l33.242-14.594a.605.605,0,0,1,.486,1.108l-33.242,14.594a.6.6,0,0,1-.243.051Z" transform="translate(-2393.338 -5807.024)" fill="#fff"/>
          <path id="Path_288" data-name="Path 288" d="M2607.908,6225.4a.605.605,0,0,1-.244-1.159l33.242-14.594a.606.606,0,0,1,.487,1.109l-33.242,14.594a.609.609,0,0,1-.243.051Z" transform="translate(-2555.98 -6177.49)" fill="#fff"/>
          <path id="Path_289" data-name="Path 289" d="M2522.882,6182.992a.605.605,0,0,1-.243-1.159l17.549-7.7a.605.605,0,0,1,.487,1.108l-17.549,7.7a.6.6,0,0,1-.243.051Z" transform="translate(-2474.658 -6143.522)" fill="#fff"/>
          <path id="Path_290" data-name="Path 290" d="M3018.667,6022.244a.605.605,0,0,1-.243-1.159l11.643-5.111a.605.605,0,0,1,.487,1.108l-11.643,5.112a.624.624,0,0,1-.243.051Z" transform="translate(-2948.845 -5992.257)" fill="#fff"/>
        </g>
        <g id="Group_147" data-name="Group 147" transform="translate(195.379 147.096)">
          <g id="Group_145" data-name="Group 145" transform="translate(0 0.768)">
            <path id="Path_291" data-name="Path 291" d="M5942.716,6404.7c.263,6.3-6.692,20.021-10.158,25.653a2.959,2.959,0,0,1-4.95.025c-4.092-5.194-13.254-18.185-13.518-24.483a14.325,14.325,0,0,1,28.625-1.2Z" transform="translate(-5914.078 -6390.969)" fill="#b43026"/>
          </g>
          <g id="Group_146" data-name="Group 146" transform="translate(1.54)">
            <path id="Path_292" data-name="Path 292" d="M5978.066,6387.076c.264,6.3-8.232,20.789-11.7,26.42a1.851,1.851,0,0,1-3.068.128c-3.923-5.323-13.6-19.056-13.86-25.353a14.325,14.325,0,0,1,28.625-1.2Z" transform="translate(-5949.428 -6373.348)" fill="#e1382b"/>
          </g>
          <path id="Path_293" data-name="Path 293" d="M6099.992,6509.737a8.5,8.5,0,1,1-8.843-8.134,8.5,8.5,0,0,1,8.843,8.134Z" transform="translate(-6075.648 -6496.009)" fill="#fff"/>
        </g>
      </g>
    </g>
    <g id="_3133167425440" transform="translate(478.068 2619.046) rotate(17)">
      <path id="Path_145" data-name="Path 145" d="M1337.462,20.116A20.116,20.116,0,1,1,1317.346,0,20.117,20.117,0,0,1,1337.462,20.116Z" transform="translate(-1297.23 0)" fill="#e2e9ff"/>
    </g>
    <g id="_3131096056320" transform="translate(480.582 2633.136) rotate(17)">
      <path id="Path_179" data-name="Path 179" d="M1319.659,41.706l4.951-2.86a2.436,2.436,0,0,0-2.436-4.219l-8.554,4.94Z" transform="translate(-1312.405 -34.3)" fill="#ea4335"/>
      <path id="Path_180" data-name="Path 180" d="M1321.336,57.413a2.436,2.436,0,0,0,1.222-4.546L1314,47.927a2.436,2.436,0,0,0-2.437,4.219l8.554,4.94A2.406,2.406,0,0,0,1321.336,57.413Z" transform="translate(-1310.35 -42.66)" fill="#4285f4"/>
      <path id="Path_181" data-name="Path 181" d="M1358.7,61.411a2.407,2.407,0,0,0,1.215-.327l8.554-4.94-5.965-2.184-5.029,2.9a2.436,2.436,0,0,0,1.222,4.546Z" transform="translate(-1339.208 -46.658)" fill="#fbbc04"/>
      <path id="Path_182" data-name="Path 182" d="M1367.267,44.113a2.436,2.436,0,0,0,1.221-4.546l-8.554-4.94a2.436,2.436,0,0,0-2.436,4.219l8.554,4.94A2.407,2.407,0,0,0,1367.267,44.113Z" transform="translate(-1339.221 -34.3)" fill="#0f9d58"/>
    </g>
    <g id="Layer_x0020_1-2" data-name="Layer_x0020_1" transform="matrix(0.921, -0.391, 0.391, 0.921, 2195.112, -2883.815)">
      <path id="Path_294" data-name="Path 294" d="M-3797.21,4391.8a1.874,1.874,0,0,1-3.21,1.291,1.935,1.935,0,0,1-.552-1.354,1.906,1.906,0,0,1,1.959-1.859A1.828,1.828,0,0,1-3797.21,4391.8Zm-24.673-.168a1.915,1.915,0,0,1,2.044-1.746,1.87,1.87,0,0,1,1.724,2.052,1.873,1.873,0,0,1-2.091,1.705,1.833,1.833,0,0,1-1.239-.666A1.9,1.9,0,0,1-3821.883,4391.631Zm1.166-9.382c-.3.264-1.524.841-2.228,1.424-.17.141-.355.235-.523.374-.193.16-.359.28-.529.419a22.956,22.956,0,0,0-2.825,2.71c-.266.281-.572.675-.836,1.009-.282.357-.512.707-.769,1.076a20.6,20.6,0,0,0-2.494,4.834c-.146.437-.308.9-.463,1.377a21.916,21.916,0,0,0-.867,4.6,1.4,1.4,0,0,0,.659.061c12.99-.052,26.064,0,39.063,0,1.877,0,3.838.055,5.7-.005a16.27,16.27,0,0,0-.312-2.393l-.166-.789a23.231,23.231,0,0,0-.839-2.85,22.335,22.335,0,0,0-5.441-8.317c-.828-.808-1.234-1.057-1.994-1.693-.83-.693-2.652-1.719-2.789-1.837l3.227-5.615c.354-.6,1.081-1.505.226-2.015s-1.317.763-1.6,1.222c-.748,1.216-1.416,2.52-2.183,3.773l-1.108,1.9-2.135-.813c-.759-.234-1.509-.474-2.309-.656a24.559,24.559,0,0,0-10.524-.012c-.81.176-1.517.4-2.3.648-.413.132-.742.257-1.087.391l-.781.329a.8.8,0,0,1-.316.117c-.164-.17-3.4-5.876-3.821-6.573a.816.816,0,0,0-1.076-.335c-.838.485-.144,1.418.167,1.929Z" fill="#30dd81" fill-rule="evenodd"/>
    </g>
  </g>
</svg>
