<svg xmlns="http://www.w3.org/2000/svg" width="79" height="79" viewBox="0 0 79 79">
  <g id="Group_33" data-name="Group 33" transform="translate(-280 -974)">
    <rect id="Rectangle_14" data-name="Rectangle 14" width="79" height="79" rx="10" transform="translate(280 974)" fill="#fbbc12"/>
    <path id="management" d="M8.307,17.756a9.459,9.459,0,0,1,9.449-9.449V12.46a5.3,5.3,0,0,0-5.3,5.3Zm20.615,9.1a15.818,15.818,0,0,0,4.378.754,37.42,37.42,0,0,1-3.261,4.811c-2.215,2.915-3.964,5.217-3.964,9.05v5.46a6.237,6.237,0,0,1-6.23,6.23H15.875a6.237,6.237,0,0,1-6.23-6.23v-5.46c0-3.833-1.749-6.135-3.964-9.05C3.033,28.939.033,24.992,0,17.86H0v-.119A17.862,17.862,0,0,1,22.459.6a15.979,15.979,0,0,0-2.706,3.683,13.706,13.706,0,0,0-15.6,13.522c.018,5.765,2.358,8.845,4.834,12.1,1.922,2.529,3.9,5.128,4.57,8.82h8.6c.673-3.692,2.648-6.291,4.57-8.82.765-1.006,1.516-2,2.19-3.052Zm-7,20.075v-4.05H13.8v4.05a2.079,2.079,0,0,0,2.077,2.077h3.969A2.079,2.079,0,0,0,21.92,46.934Zm19.9-33.124a8.244,8.244,0,0,1-.891,2.14l2.637,2.637-2.937,2.937L38,18.887a8.255,8.255,0,0,1-2.174.9v3.681H31.67v-3.7a8.261,8.261,0,0,1-2.1-.881l-2.637,2.637-2.937-2.937,2.637-2.637a8.244,8.244,0,0,1-.891-2.14H22.013V9.657h3.725a8.244,8.244,0,0,1,.891-2.14L23.991,4.88l2.937-2.937L29.565,4.58a8.258,8.258,0,0,1,2.208-.907V0h4.153V3.709A8.257,8.257,0,0,1,38,4.58l2.637-2.637L43.571,4.88,40.935,7.517a8.244,8.244,0,0,1,.891,2.14H45.55V13.81Zm-8.044,2.077a4.153,4.153,0,1,0-2.4-7.543l-.995.995a4.15,4.15,0,0,0,3.39,6.549Zm0,0" transform="translate(297.03 986.98)" fill="#fbfbfb"/>
  </g>
</svg>
