<svg xmlns="http://www.w3.org/2000/svg" width="79" height="79" viewBox="0 0 79 79">
  <g id="Group_35" data-name="Group 35" transform="translate(-1288 -974)">
    <rect id="Rectangle_16" data-name="Rectangle 16" width="79" height="79" rx="10" transform="translate(1288 974)" fill="#189e59"/>
    <g id="audience" transform="translate(1298.968 887.206)">
      <g id="Group_9" data-name="Group 9" transform="translate(16.579 130.615)">
        <g id="Group_8" data-name="Group 8">
          <path id="Path_3" data-name="Path 3" d="M166.775,283.283a10.123,10.123,0,0,0-4.868-1.238h-4.19a10.175,10.175,0,0,0-10.177,10.177v3.14h24.544v-3.14A10.173,10.173,0,0,0,166.775,283.283Z" transform="translate(-147.54 -282.045)" fill="#fff"/>
        </g>
      </g>
      <g id="Group_11" data-name="Group 11" transform="translate(38.382 127.826)">
        <g id="Group_10" data-name="Group 10" transform="translate(0 0)">
          <path id="Path_4" data-name="Path 4" d="M350.583,257.225H347.1a10.076,10.076,0,0,0-5.519,1.637,13.573,13.573,0,0,1,6.112,11.329v1.477H360.73v-4.3A10.158,10.158,0,0,0,350.583,257.225Z" transform="translate(-341.58 -257.225)" fill="#fff"/>
        </g>
      </g>
      <g id="Group_13" data-name="Group 13" transform="translate(0 127.826)">
        <g id="Group_12" data-name="Group 12" transform="translate(0 0)">
          <path id="Path_5" data-name="Path 5" d="M13.63,257.225H10.147A10.158,10.158,0,0,0,0,267.372v4.3H13.208v-1.477a13.581,13.581,0,0,1,6.027-11.273A10.081,10.081,0,0,0,13.63,257.225Z" transform="translate(0 -257.225)" fill="#fff"/>
        </g>
      </g>
      <g id="Group_15" data-name="Group 15" transform="translate(38.804 112.565)">
        <g id="Group_14" data-name="Group 14" transform="translate(0 0)">
          <path id="Path_6" data-name="Path 6" d="M352.17,121.416h-.054a7.22,7.22,0,0,0,.065,14.417h.054a6.621,6.621,0,0,0,4.858-2.194,7.374,7.374,0,0,0,1.921-5.072A7.043,7.043,0,0,0,352.17,121.416Z" transform="translate(-345.337 -121.416)" fill="#fff"/>
        </g>
      </g>
      <g id="Group_17" data-name="Group 17" transform="translate(5.049 112.565)">
        <g id="Group_16" data-name="Group 16" transform="translate(0 0)">
          <path id="Path_7" data-name="Path 7" d="M51.771,121.416h-.054a7.22,7.22,0,0,0,.065,14.417h.054a6.621,6.621,0,0,0,4.859-2.194,7.373,7.373,0,0,0,1.921-5.072A7.043,7.043,0,0,0,51.771,121.416Z" transform="translate(-44.938 -121.416)" fill="#fff"/>
        </g>
      </g>
      <g id="Group_19" data-name="Group 19" transform="translate(20.968 111.445)">
        <g id="Group_18" data-name="Group 18" transform="translate(0 0)">
          <path id="Path_8" data-name="Path 8" d="M194.484,111.445a8.125,8.125,0,0,0-7.884,8.33,8.383,8.383,0,0,0,4.514,7.529,7.5,7.5,0,0,0,6.74,0,8.383,8.383,0,0,0,4.514-7.529A8.124,8.124,0,0,0,194.484,111.445Z" transform="translate(-186.6 -111.445)" fill="#fff"/>
        </g>
      </g>
    </g>
  </g>
</svg>
