<svg xmlns="http://www.w3.org/2000/svg" xmlns:xlink="http://www.w3.org/1999/xlink" width="636.941" height="431.571" viewBox="0 0 636.941 431.571">
  <defs>
    <linearGradient id="linear-gradient" x1="0.405" y1="0.088" x2="1" y2="0.853" gradientUnits="objectBoundingBox">
      <stop offset="0" stop-color="#189e59"/>
      <stop offset="1" stop-color="#0c4f2d"/>
    </linearGradient>
    <linearGradient id="linear-gradient-2" x1="0.726" y1="0.169" x2="-0.25" y2="1.678" gradientUnits="objectBoundingBox">
      <stop offset="0" stop-color="#e1382b"/>
      <stop offset="1" stop-color="#ffaaa4"/>
    </linearGradient>
    <linearGradient id="linear-gradient-3" x1="0.585" y1="0.598" x2="-0.402" y2="2.137" gradientUnits="objectBoundingBox">
      <stop offset="0" stop-color="#557fc0"/>
      <stop offset="1" stop-color="#2b4060"/>
    </linearGradient>
    <linearGradient id="linear-gradient-4" x1="0.4" y1="0.4" x2="1.088" y2="0.842" gradientUnits="objectBoundingBox">
      <stop offset="0" stop-color="#fbbc12"/>
      <stop offset="0.376" stop-color="#f8b616"/>
      <stop offset="1" stop-color="#cf664a"/>
    </linearGradient>
  </defs>
  <g id="Group_21" data-name="Group 21" transform="translate(-872 -1688)">
    <circle id="Ellipse_8" data-name="Ellipse 8" cx="122.5" cy="122.5" r="122.5" transform="translate(1253 1688)" fill="url(#linear-gradient)"/>
    <rect id="Rectangle_25" data-name="Rectangle 25" width="486" height="263" rx="46" transform="translate(930 1762)" fill="url(#linear-gradient-2)"/>
    <circle id="Ellipse_3" data-name="Ellipse 3" cx="10.327" cy="10.327" r="10.327" transform="translate(1299.435 1795.887)" fill="#6c63ff" opacity="0.4"/>
    <circle id="Ellipse_4" data-name="Ellipse 4" cx="14.722" cy="14.722" r="14.722" transform="translate(1077.298 1721.281)" fill="#fbbc12" opacity="0.4"/>
    <circle id="Ellipse_5" data-name="Ellipse 5" cx="10.327" cy="10.327" r="10.327" transform="translate(1054.446 1732.707)" fill="#fbbc12" opacity="0.4"/>
    <path id="Path_9" data-name="Path 9" d="M923.556,582.083c-8.16,8.934-8.456,21.948-8.456,21.948s12.934-1.471,21.094-10.4,8.456-21.948,8.456-21.948S931.716,573.149,923.556,582.083Z" transform="translate(394.856 1339.618)" fill="#3f3d56"/>
    <path id="Path_10" data-name="Path 10" d="M923.386,573.182c-2.469,11.845-12.849,19.7-12.849,19.7s-6.376-11.349-3.907-23.193,12.848-19.7,12.848-19.7S925.855,561.338,923.386,573.182Z" transform="translate(399.636 1351.089)" fill="#179454"/>
    <path id="Path_11" data-name="Path 11" d="M454.608,233.581v141.2l-47.068,38.882H166.746V265.642l70.26-32.061Z" transform="translate(857.815 1568.467)" fill="#3f3d56"/>
    <path id="Path_12" data-name="Path 12" d="M454.608,233.581v.566l-16.9,11.31-30.171,20.185H166.746l70.26-32.061Z" transform="translate(857.815 1568.467)" opacity="0.1"/>
    <path id="Path_13" data-name="Path 13" d="M724.911,233.581v141.2l-47.068,38.882.341-148.365,29.83-19.844,16.624-11.876Z" transform="translate(587.513 1568.467)" opacity="0.1"/>
    <path id="Path_14" data-name="Path 14" d="M478.463,267.953H331.8l10.914-6.139H483.238Z" transform="translate(770.522 1553.535)" fill="#2f2e41"/>
    <g id="Group_20" data-name="Group 20" transform="translate(0 -1)">
      <path id="Path_15" data-name="Path 15" d="M1023.3,738.332s2.843,11.89.258,12.407-15.25.35-18.351.867-9.563-.35-9.563-2.676,6.72-3.877,6.72-3.877,9.563-5.169,9.822-5.428S1023.3,738.332,1023.3,738.332Z" transform="translate(328.257 1251.481)" fill="#2f2e41"/>
      <path id="Path_16" data-name="Path 16" d="M1033.163,588.207s-.775,8.788-.775,9.563.775,12.924,0,13.44.517,4.136.517,5.428,4.135,22.745,3.1,31.017,1.551,7.5.775,8.271-.775.775-.775,2.326-8.271,2.843-8.271,2.843l-9.045-57.122,4.652-17.059Z" transform="translate(316.071 1331.56)" fill="#575a89"/>
      <path id="Path_17" data-name="Path 17" d="M1033.163,588.207s-.775,8.788-.775,9.563.775,12.924,0,13.44.517,4.136.517,5.428,4.135,22.745,3.1,31.017,1.551,7.5.775,8.271-.775.775-.775,2.326-8.271,2.843-8.271,2.843l-9.045-57.122,4.652-17.059Z" transform="translate(316.071 1331.56)" opacity="0.1"/>
      <path id="Path_18" data-name="Path 18" d="M1015.334,744.53s2.585,9.3,0,9.822-15.25-.592-18.351-.075-9.563.592-9.563-1.734,6.72-3.877,6.72-3.877,9.563-5.169,9.822-5.428S1015.334,744.53,1015.334,744.53Z" transform="translate(332.609 1248.902)" fill="#2f2e41"/>
      <path id="Path_19" data-name="Path 19" d="M1025.636,567.713s3.1,7.5-.517,11.373-7.754,11.631-7.754,12.148,7.237,51.953,6.2,55.313-.775,5.428-.517,5.945-2.585,3.36-5.686,3.36-7.754-2.326-8.271-4.394.775-19.9.517-23.262a38.952,38.952,0,0,0-2.068-9.3c-.517-1.034-3.36-2.068-3.877-5.169s-4.652-42.648-3.36-43.94S1025.636,567.713,1025.636,567.713Z" transform="translate(325.925 1341.715)" fill="#575a89"/>
      <circle id="Ellipse_6" data-name="Ellipse 6" cx="8.788" cy="8.788" r="8.788" transform="translate(1323.131 1832.403)" fill="#ffb9b9"/>
      <path id="Path_20" data-name="Path 20" d="M1010.829,430.857s-1.809,9.563-.517,10.6-9.822,2.585-9.822,2.585-1.292-12.665-1.551-13.957S1010.829,430.857,1010.829,430.857Z" transform="translate(326.518 1414.729)" fill="#ffb9b9"/>
      <path id="Path_21" data-name="Path 21" d="M993.418,450.763s3.1-9.046,15.767-6.462c0,0,2.326.775,1.551,1.551s-1.551.775-.517,1.551,2.326,0,1.551.775,6.979,5.428,6.462,14.216,1.809,21.195,0,23.262,1.292,11.114.775,12.924,3.1,4.136,1.551,4.911-29.466,5.428-30.241,0-.259-1.551-1.034-2.843-1.034-3.619-.517-6.462,1.809-9.822,1.292-12.407,0-24.3,1.551-26.881A13.413,13.413,0,0,0,993.418,450.763Z" transform="translate(332.039 1407.229)" fill="#557fc0"/>
      <path id="Path_22" data-name="Path 22" d="M1004.074,591.82s3.877,14.733-1.034,14.733-4.652-15.25-4.652-15.25Z" transform="translate(326.809 1329.239)" fill="#ffb9b9"/>
      <path id="Path_23" data-name="Path 23" d="M1004.43,409.2c0,.75,1.086,1.225,2.768,1.334h0a14.08,14.08,0,0,0,2.14-.041c1.075-.1,1.52.912,1.7,2.246.3,2.2-.119,5.283.364,5.766.667.667,5.529,0,7.049-1.515a1.405,1.405,0,0,0,.447-.812,4.319,4.319,0,0,1,1.3-2.412c.9-.98,2.174-2.065,3.613-3.792,2.585-3.1,0-3.36-.775-5.686s-2.068-3.1-2.068-4.652-5.945-2.843-10.856-2.585-3.877,6.462-3.877,6.462-.292.75-.641,1.716a26.944,26.944,0,0,0-1.148,3.727,1.883,1.883,0,0,0-.021.243Z" transform="translate(323.612 1431.988)" fill="#2f2e41"/>
      <path id="Path_24" data-name="Path 24" d="M1002.408,466.764s8.788-.517,9.563,12.407.517,25.072.517,25.33-3.619,24.813-6.979,24.813-5.945-.517-6.72-1.809,2.068-19.9,2.068-19.9,1.292-19.644-.775-25.847S997.757,467.539,1002.408,466.764Z" transform="translate(326.666 1395.105)" opacity="0.1"/>
      <path id="Path_25" data-name="Path 25" d="M999.668,464.021s8.788-.517,9.563,12.407.517,25.072.517,25.33-3.619,24.813-6.979,24.813-5.945-.517-6.72-1.809,2.068-19.9,2.068-19.9,1.292-19.644-.775-25.847S995.015,464.8,999.668,464.021Z" transform="translate(328.115 1396.556)" fill="#557fc0"/>
    </g>
    <path id="Path_26" data-name="Path 26" d="M686.444,186.752s-3.83-10.851-6.6-7.447,4.255,9.149,4.255,9.149Z" transform="translate(519.614 1547.481)" fill="#a0616a"/>
    <path id="Path_27" data-name="Path 27" d="M708.359,173.273l-2.3.854s-1.1,4.891-.675,5.742.638.213,0,1.915-2.553,6.17-2.766,6.809-12.341-4.043-12.341-6.383c0,0-2.553,2.979-3.83,3.617,0,0,14.043,10.213,15.958,11.49s2.979.638,4.681-.851,8.936-13.83,8.936-13.83Z" transform="translate(515.785 1550.322)" fill="#575a89"/>
    <path id="Path_28" data-name="Path 28" d="M695.257,332.063s.213,2.34.638,2.553,3.617,5.532,0,6.6-5.745.638-6.6,1.064-15.745,1.277-15.958-1.064,7.234-2.766,7.234-2.766,6.809-4.468,7.872-6.809S695.257,332.063,695.257,332.063Z" transform="translate(522.716 1467.065)" fill="#2f2e41"/>
    <path id="Path_29" data-name="Path 29" d="M795.088,342.628s5.106,8.724,3.83,9.787-13.709,4.941-15.532,5.107c-2.341.213-4.043-1.7-2.128-2.766s5.958-5.532,5.958-7.021V343.9Z" transform="translate(466.078 1460.755)" fill="#2f2e41"/>
    <path id="Path_30" data-name="Path 30" d="M758.873,221.6s4.468,5.532-2.553,14.468l-11.7,14.894s7.234,11.49,7.447,17.447,1.7,4.681,2.128,7.234,2.34,1.277.851,3.192-7.021,3.617-8.724,2.128a5.275,5.275,0,0,1-1.7-4.255c0-.851-2.979-5.745-3.192-7.234s-8.085-13.617-8.085-13.617-2.553-7.234.426-11.277a42.738,42.738,0,0,0,4.947-9.776s-8.777,10.627-14.947,13.181c0,0-2.34.426-1.915,1.489s0,1.7-.638,2.766-5.106,13.4-6.6,16.6-.851,5.106-2.553,6.17-9.362.213-9.362-.851a21.69,21.69,0,0,1,1.7-5.319c.638-1.489,5.745-18.724,5.319-21.7s.213-7.021,3.4-8.724,19.362-15.532,20.213-15.532S758.873,221.6,758.873,221.6Z" transform="translate(507.186 1524.765)" fill="#2f2e41"/>
    <circle id="Ellipse_7" data-name="Ellipse 7" cx="8.936" cy="8.936" r="8.936" transform="translate(1214.356 1695.083)" fill="#a0616a"/>
    <path id="Path_31" data-name="Path 31" d="M736.757,133.531s2.766,4.894,6.17,5.532-8.936,10.426-8.936,10.426-2.979-9.362-5.532-9.787S736.757,133.531,736.757,133.531Z" transform="translate(493.77 1571.34)" fill="#a0616a"/>
    <path id="Path_32" data-name="Path 32" d="M727.992,158.437c0,2.766,8.3,10.639,8.3,10.639l7.872,6.6s.213,2.34,1.064,2.553,1.915.213,1.064,1.489-2.979,4.043-1.064,4.468a15.64,15.64,0,0,0,1.743.166c.511.03,1.111.057,1.785.083,1.574.055,3.545.091,5.679.077q.91,0,1.851-.021c8.045-.16,17.364-1.085,16.6-4.134-1.277-5.106-.426-6.809-3.192-9.575s-7.234-12.341-7.234-12.341-8.936-15.107-16.383-15.107l-1.547-.406a3.542,3.542,0,0,0-3.866,1.485c-1.494,2.275-3.849,5.692-5.226,6.794-2.128,1.7-2.46.481-2.46.481S727.992,155.671,727.992,158.437Z" transform="translate(493.811 1566.434)" fill="#575a89"/>
    <path id="Path_33" data-name="Path 33" d="M764.152,244.628s-6.17,9.575-2.341,11.277,5.958-10,5.958-10Z" transform="translate(476.588 1512.584)" fill="#a0616a"/>
    <path id="Path_34" data-name="Path 34" d="M726.227,117.223c-.343-.043-.451-.476-.509-.817a4.591,4.591,0,0,0-3.5-3.851,4.951,4.951,0,0,0-2.083.168,7.9,7.9,0,0,0-2.673,1.316,4.41,4.41,0,0,1-1.336.839c-.335.1-1.759.731-2.092.839-.731.235-1.337,1-2.09.849-.721-.145-.994-1.015-1.11-1.741-.264-1.654.683-4.121,1.624-5.507a5.841,5.841,0,0,1,3.131-2.05,22.5,22.5,0,0,1,4.343-.863,14.043,14.043,0,0,1,5.951.255,5.682,5.682,0,0,1,3.995,4.087c.074.41.088.831.179,1.237a18.4,18.4,0,0,0,1.261,2.769,5.332,5.332,0,0,1-.163,4.323c-.531,1.067-1.453,2.092-1.254,3.267l-1.642-1.295a1.193,1.193,0,0,1-.548-1.4l.239-2.056a1.809,1.809,0,0,0-.107-1.112C727.116,115.212,726.8,117.295,726.227,117.223Z" transform="translate(502.908 1585.788)" fill="#2f2e41"/>
    <path id="Path_35" data-name="Path 35" d="M768.565,179.79l-2,8.334c2.021.072,4.7.111,7.53.055.715-2.145,1.4-4.381,1.921-6.475,1.915-7.66-1.277-19.362-2.979-24.894a10.68,10.68,0,0,0-5.958-7.021,19.4,19.4,0,0,0-4.894,2.553C759.416,154.257,768.565,179.79,768.565,179.79Z" transform="translate(476.005 1562.741)" opacity="0.1"/>
    <path id="Path_36" data-name="Path 36" d="M769.258,184.156l-2.087,8.677c.511.03,1.111.057,1.785.083,1.574.055,3.545.091,5.679.077.768-2.279,1.511-4.683,2.07-6.921,1.915-7.66-1.277-19.362-2.979-24.894s-5.426.532-5.426.532,1.489-3.617-1.277-1.7S769.258,184.156,769.258,184.156Z" transform="translate(473.61 1557.95)" opacity="0.1"/>
    <path id="Path_37" data-name="Path 37" d="M765.269,148.886a10.68,10.68,0,0,1,5.958,7.021c1.7,5.532,4.894,17.234,2.979,24.894a143.451,143.451,0,0,1-5.957,17.235s-4.043-2.979-5.532-2.34l4.043-16.809s-9.149-25.532-6.383-27.448A19.4,19.4,0,0,1,765.269,148.886Z" transform="translate(476.96 1563.219)" fill="#575a89"/>
    <path id="Path_38" data-name="Path 38" d="M458.916,131.5,400.05,8.828,301.62,56.062l36.2,75.435Z" transform="translate(786.485 1687.331)" fill="#f2f2f2"/>
    <rect id="Rectangle_26" data-name="Rectangle 26" width="57.988" height="3.599" transform="translate(1114.335 1769.399) rotate(-25.635)" fill="#3f3d56"/>
    <rect id="Rectangle_27" data-name="Rectangle 27" width="57.988" height="3.599" transform="translate(1128.177 1798.243) rotate(-25.635)" fill="#3f3d56"/>
    <rect id="Rectangle_28" data-name="Rectangle 28" width="14.397" height="14.397" transform="translate(1176.985 1733.568) rotate(-25.635)" fill="#3f3d56"/>
    <rect id="Rectangle_29" data-name="Rectangle 29" width="14.397" height="14.397" transform="translate(1190.827 1762.412) rotate(-25.635)" fill="#3f3d56"/>
    <path id="Path_39" data-name="Path 39" d="M504.522,55.924l-5.345,15.209L491.97,68.6l-.986,2.806,10,3.515,6.341-18.011Z" transform="translate(686.336 1662.424)" fill="#57b894"/>
    <path id="Path_40" data-name="Path 40" d="M533.9,117.146l-5.345,15.209-7.206-2.532-.986,2.805,10,3.515,6.341-18.011Z" transform="translate(670.798 1630.045)" fill="#57b894"/>
    <path id="left_leg" data-name="left leg" d="M288.154,613.4s-1.861,23.258-2.326,26.515-.93,32.562-1.861,35.818a106.21,106.21,0,0,0-1.861,11.164h-5.582s.465-14.42-.93-20-.93-20.933-.93-20.933-2.791-27.445-1.4-31.166S288.154,613.4,288.154,613.4Z" transform="translate(734.506 1317.935)" fill="#ffb9b9"/>
    <path id="left_shoe" data-name="left shoe" d="M282.717,767.239s2.326,1.4,2.326,2.326-.465,3.256,0,4.187,3.721,4.652,1.861,5.582-10.234,0-10.234,0,.465-6.512.93-6.978-.465-5.117-.465-5.117Z" transform="translate(732.501 1236.193)" fill="#2f2e41"/>
    <path id="right_leg" data-name="right leg" d="M227.06,612.889s-.591,23.325-.47,26.612-2.493,32.48-1.909,35.816a106.2,106.2,0,0,1,.679,11.3l5.551.586s1.051-14.389,3.025-19.794,3.122-20.719,3.122-20.719,5.656-27,4.659-30.848S227.06,612.889,227.06,612.889Z" transform="translate(760.041 1317.871)" fill="#ffb9b9"/>
    <path id="right_shoe" data-name="right shoe" d="M222.841,766.842s-2.459,1.144-2.557,2.069.121,3.287-.439,4.163-4.189,4.235-2.436,5.356,10.177,1.074,10.177,1.074.221-6.525-.193-7.037,1-5.04,1-5.04Z" transform="translate(764.093 1236.403)" fill="#2f2e41"/>
    <path id="Polygon_6" data-name="Polygon 6" d="M69.839,15a10,10,0,0,1,17.322,0l61.182,106a10,10,0,0,1-8.661,15H17.318a10,10,0,0,1-8.661-15Z" transform="translate(872 1934)" fill="url(#linear-gradient-3)"/>
    <rect id="Rectangle_31" data-name="Rectangle 31" width="136" height="136" rx="25" transform="translate(1412.775 1927.238) rotate(45)" fill="url(#linear-gradient-4)"/>
    <g id="woman" transform="translate(946 1832.265)">
      <rect id="Rectangle_30" data-name="Rectangle 30" width="27.195" height="27.195" transform="translate(32.277 122.068) rotate(167.942)" fill="#f2f2f2"/>
      <path id="right_hand" data-name="right hand" d="M201.474,591.492s-9.769,6.978-6.512,9.769,9.769-8.373,9.769-8.373Z" transform="translate(-169.935 -503.125)" fill="#ffb9b9"/>
      <path id="pants" d="M256.484,540.15s3.721.465,5.117,8.373,6.512,27.91,2.326,29.306-16.746,4.187-17.211,3.256-1.4-3.256-1.4-3.256,1.4,4.187-.465,4.187-20-2.791-19.537-4.187,1.4-11.629,1.4-11.629,2.791-17.211,5.582-20a7.629,7.629,0,0,0,2.326-6.047Z" transform="translate(-186.336 -475.972)" fill="#2f2e41"/>
      <path id="left_hand" data-name="left hand" d="M298.273,531.687s-6.047-1.4-6.978.465,2.326,4.652,3.721,4.652a10.2,10.2,0,0,0,3.721-1.4Z" transform="translate(-221.147 -471.231)" fill="#ffb9b9"/>
      <circle id="head" cx="8.373" cy="8.373" r="8.373" transform="translate(56.193 4.171)" fill="#ffb9b9"/>
      <path id="neck" d="M259.437,438.508s-1.4,6.512-.465,6.512-6.978,4.187-6.978,4.187l-6.047-.93-1.861-2.791s9.769-6.512,9.769-10.234S259.437,438.508,259.437,438.508Z" transform="translate(-196.267 -419.917)" fill="#ffb9b9"/>
      <path id="upper_body" data-name="upper body" d="M244.285,456.169a6.819,6.819,0,0,1,1.861-.93h3.721c.465,0,6.512,1.4,6.512,1.4l3.721,20.933s-6.512,10.7-1.861,19.072c0,0-1.4-.93-7.908-.465s-18.142,1.861-18.607,1.861-.465-3.721,0-4.652-.465-.465-.465-2.791a28.456,28.456,0,0,0-1.4-6.512l-6.512-23.724s8.373-4.652,9.769-4.187,5.582,1.861,6.512,1.4A43.041,43.041,0,0,1,244.285,456.169Z" transform="translate(-185.302 -431.065)" fill="#fbbc12"/>
      <path id="left_arm" data-name="left arm" d="M290.492,458.633l1.4-.465s2.791-.465,6.047,2.326,15.351,11.164,15.351,11.164,4.652,3.721,3.256,7.908-3.721,14.42-10.7,13.955c0,0-4.187,5.582-6.512,4.652s-4.187-4.652-2.791-5.117,5.117-5.117,5.117-5.117L297,479.1h-1.4l-5.117-2.791Z" transform="translate(-220.81 -432.599)" fill="#fbbc12"/>
      <path id="right_arm" data-name="right arm" d="M218.059,465.112l-3.721.465s-3.256,1.4-2.791,7.443-2.791,33.492-1.4,36.748c0,0-4.652,15.816-3.721,16.281s6.512,3.256,6.047,1.4,5.117-14.885,5.117-14.885a18.381,18.381,0,0,0,3.721-16.746V487.9Z" transform="translate(-176.287 -436.287)" fill="#fbbc12"/>
      <path id="hair" d="M267.682,424.569l-5.914,1.288-.76-2.912.292,3.014-9.54,2.078-.42-1.607.161,1.664-6.11,1.331-1.307-12.547c-1.344-5.149,3.561-10.636,8.709-11.98l2.284-.6c3.782-.987,10.655-.09,11.642,3.692C264.994,414.587,262.049,421.814,267.682,424.569Z" transform="translate(-196.148 -403.93)" fill="#2f2e41"/>
    </g>
  </g>
</svg>
