<svg xmlns="http://www.w3.org/2000/svg" width="406" height="292.017" viewBox="0 0 406 292.017">
  <g id="Group_150" data-name="Group 150" transform="translate(-1260 -2527.983)">
    <g id="_3133176256560" transform="translate(1359.817 2532.912)">
      <path id="Path_210" data-name="Path 210" d="M349.344,8.53c-5.964,0-6.407,3.645-6.407,3.645s-.443-3.645-6.407-3.645-8.064,6.848-6.517,10.938,12.926,14.469,12.926,14.469,11.378-10.383,12.924-14.469S355.31,8.53,349.346,8.53Z" transform="translate(-329.523 -8.53)" fill="#e1382b"/>
      <g id="Group_75" data-name="Group 75" transform="translate(193.432 0.344)">
        <path id="Path_213" data-name="Path 213" d="M1340.722,145.4h-23.574a2.326,2.326,0,0,0-2.328,2.323v16.841a2.326,2.326,0,0,0,2.328,2.323h1.269v5.828l5.828-5.828h16.479a2.325,2.325,0,0,0,2.328-2.323V147.723a2.325,2.325,0,0,0-2.328-2.323Z" transform="translate(-1314.82 -145.4)" fill="#9570ed"/>
      </g>
    </g>
    <rect id="Rectangle_36" data-name="Rectangle 36" width="406" height="197" rx="60" transform="translate(1260 2623)" fill="#e1382b"/>
    <circle id="Ellipse_17" data-name="Ellipse 17" cx="89" cy="89" r="89" transform="translate(1375 2555)" fill="#fccbc7"/>
    <g id="_3133176244656" transform="translate(1552.719 2584.18)">
      <path id="Path_184" data-name="Path 184" d="M1281.364,465.032A22.362,22.362,0,1,1,1259,442.67,22.363,22.363,0,0,1,1281.364,465.032Z" transform="translate(-1236.64 -442.67)" fill="#4285f4"/>
      <path id="Path_185" data-name="Path 185" d="M1307.42,504.38c-4.548,0-4.886,2.779-4.886,2.779s-.338-2.779-4.886-2.779-6.149,5.221-4.969,8.34,9.855,11.034,9.855,11.034,8.676-7.917,9.855-11.034S1311.968,504.38,1307.42,504.38Z" transform="translate(-1280.104 -490.853)" fill="#fefefe"/>
    </g>
    <g id="_3133176243504" transform="translate(1417.886 2527.983)">
      <g id="Group_65" data-name="Group 65">
        <path id="Path_186" data-name="Path 186" d="M665.93,35.9a18.109,18.109,0,0,0-17.963-21.16c-.095,0-.185.012-.279.014A27.671,27.671,0,0,0,595.54,27.667c0,.6.053,1.183.09,1.769a18.21,18.21,0,0,0,6.212,35.333h55.807a15.623,15.623,0,0,0,8.283-28.875Z" transform="translate(-583.62 0.01)" fill="#179654"/>
        <path id="Path_187" data-name="Path 187" d="M669.4,133.856h55.807a15.623,15.623,0,0,0,8.283-28.875,18.11,18.11,0,0,0-17.963-21.16c-.095,0-.185.012-.279.014a.368.368,0,0,1-.021-.035L665.58,133.446a18.269,18.269,0,0,0,3.824.409Z" transform="translate(-651.178 -69.073)" fill="#1d7547"/>
      </g>
      <g id="Group_70" data-name="Group 70" transform="translate(23.444 21.265)">
        <g id="Group_66" data-name="Group 66" transform="translate(16.231 21.191)">
          <path id="Path_188" data-name="Path 188" d="M819.6,246.707a5.1,5.1,0,1,1-5.1-5.1A5.1,5.1,0,0,1,819.6,246.707Z" transform="translate(-809.41 -241.61)" fill="#f6f6f6"/>
        </g>
        <g id="Group_67" data-name="Group 67">
          <path id="Path_189" data-name="Path 189" d="M758.2,133.96a1.5,1.5,0,0,1-1.2-.6,23.23,23.23,0,0,0-37.273,0,1.495,1.495,0,1,1-2.393-1.792,26.221,26.221,0,0,1,42.059,0,1.493,1.493,0,0,1-1.195,2.39Z" transform="translate(-717.04 -121.01)" fill="#f6f6f6"/>
        </g>
        <g id="Group_68" data-name="Group 68" transform="translate(5.201 7.276)">
          <path id="Path_190" data-name="Path 190" d="M777.4,173.33a1.5,1.5,0,0,1-1.251-.675,15.982,15.982,0,0,0-26.765,0,1.495,1.495,0,1,1-2.5-1.641,18.97,18.97,0,0,1,31.762,0,1.493,1.493,0,0,1-1.247,2.314Z" transform="translate(-746.641 -162.42)" fill="#f6f6f6"/>
        </g>
        <g id="Group_69" data-name="Group 69" transform="translate(10.291 14.224)">
          <path id="Path_191" data-name="Path 191" d="M777.1,211.043a1.514,1.514,0,0,1-.634-.142,1.5,1.5,0,0,1-.717-1.987,12.017,12.017,0,0,1,21.8,0,1.5,1.5,0,0,1-2.706,1.272,9.026,9.026,0,0,0-16.384,0A1.5,1.5,0,0,1,777.1,211.043Z" transform="translate(-775.606 -201.96)" fill="#f6f6f6"/>
        </g>
      </g>
    </g>
    <g id="_3133176248496" transform="translate(1353.341 2644.498)">
      <path id="Path_192" data-name="Path 192" d="M575.224,826.392H377.41V722.771a4.921,4.921,0,0,1,4.921-4.921H570.3a4.921,4.921,0,0,1,4.921,4.921Z" transform="translate(-366.369 -717.85)" fill="#acc6f5"/>
      <path id="Path_193" data-name="Path 193" d="M541.87,1224.515H332.106a5.067,5.067,0,0,1-5.066-5.066v-6.409h219.9v6.409a5.067,5.067,0,0,1-5.066,5.066Z" transform="translate(-327.04 -1104.497)" fill="#b1cdf9"/>
      <path id="Path_194" data-name="Path 194" d="M711.39,1213.04l2.315,2.227a4.93,4.93,0,0,0,3.417,1.376h40.27a4.927,4.927,0,0,0,3.706-1.679l1.688-1.925Z" transform="translate(-627.143 -1104.497)" fill="#6b95d8"/>
      <path id="Path_195" data-name="Path 195" d="M594.075,845.755H410.98V750.61H594.075Z" transform="translate(-392.581 -743.429)" fill="#fff"/>
    </g>
    <g id="_3133176249392" transform="translate(1468.9 2661.533)">
      <path id="Path_196" data-name="Path 196" d="M925.581,849.781H855.7a1.455,1.455,0,0,1-1.456-1.455v-20.92a1.455,1.455,0,0,1,1.456-1.455h69.885a1.455,1.455,0,0,1,1.456,1.455v20.92A1.455,1.455,0,0,1,925.581,849.781Z" transform="translate(-854.24 -819.291)" fill="rgba(181,181,181,0.16)"/>
      <path id="Path_197" data-name="Path 197" d="M961.717,819.4H894.725a1.425,1.425,0,0,1-1.425-1.425V796.995a1.425,1.425,0,0,1,1.425-1.425h66.992a1.425,1.425,0,0,1,1.425,1.425v20.981A1.425,1.425,0,0,1,961.717,819.4Z" transform="translate(-884.738 -795.57)" fill="#fabb05"/>
    </g>
    <path id="Path_198" data-name="Path 198" d="M924.1,1007.073H856.978a1.9,1.9,0,0,1-1.9-1.9V967.348a1.9,1.9,0,0,1,1.9-1.9H924.1a1.9,1.9,0,0,1,1.9,1.9v37.826A1.9,1.9,0,0,1,924.1,1007.073Z" transform="translate(614.004 1733.32)" fill="#f2f2f2"/>
    <g id="_3133176250352" transform="translate(1328.839 2583.321)">
      <path id="Path_199" data-name="Path 199" d="M259.984,461.112a22.362,22.362,0,1,1-22.362-22.362A22.363,22.363,0,0,1,259.984,461.112Z" transform="translate(-215.26 -438.75)" fill="#f4427e"/>
      <path id="Path_200" data-name="Path 200" d="M290.444,502.694h-1.927a7.4,7.4,0,0,0-.623-1.508l1.361-1.361a.962.962,0,0,0,0-1.359l-1.616-1.615a.962.962,0,0,0-1.359,0l-1.361,1.361a7.408,7.408,0,0,0-1.508-.622v-1.927a.962.962,0,0,0-.962-.962h-2.284a.964.964,0,0,0-.962.962v1.927a7.408,7.408,0,0,0-1.508.622l-1.359-1.361a.962.962,0,0,0-1.359,0l-1.615,1.615a.962.962,0,0,0,0,1.359l1.359,1.361a7.529,7.529,0,0,0-.622,1.508h-1.927a.962.962,0,0,0-.962.96v2.284a.962.962,0,0,0,.962.962H274.1a7.4,7.4,0,0,0,.622,1.508l-1.359,1.359a.964.964,0,0,0,0,1.361l1.615,1.615a.958.958,0,0,0,1.359,0l1.359-1.359a7.524,7.524,0,0,0,1.508.623v1.927a.962.962,0,0,0,.962.962h2.284a.962.962,0,0,0,.962-.962v-1.927a7.4,7.4,0,0,0,1.508-.623l1.361,1.359a.958.958,0,0,0,1.359,0l1.616-1.615a.965.965,0,0,0,0-1.361l-1.361-1.359a7.53,7.53,0,0,0,.623-1.508h1.927a.962.962,0,0,0,.962-.962v-2.284A.96.96,0,0,0,290.444,502.694Zm-9.136,6.133h0a4.029,4.029,0,1,1,4.029-4.029A4.029,4.029,0,0,1,281.308,508.827Z" transform="translate(-258.946 -482.436)" fill="#fff"/>
    </g>
    <path id="Path_201" data-name="Path 201" d="M535.624,876.862H463.7a3.043,3.043,0,0,1-3.042-3.042V801.4a3.043,3.043,0,0,1,3.042-3.042h71.922a3.041,3.041,0,0,1,3.042,3.042V873.82A3.043,3.043,0,0,1,535.624,876.862Z" transform="translate(921.97 1863.785)" fill="#f2f2f2"/>
    <g id="_3133176252848" transform="translate(1350.868 2662.298)">
      <g id="Group_71" data-name="Group 71" transform="translate(0 0.002)">
        <path id="Path_202" data-name="Path 202" d="M389.861,801.286v51.557a2.626,2.626,0,0,1-2.626,2.626H318.4a2.645,2.645,0,0,1-2.637-2.637V801.277a2.208,2.208,0,0,1,2.207-2.207H387.64a2.218,2.218,0,0,1,2.218,2.218Z" transform="translate(-315.76 -799.07)" fill="#9caaf2"/>
      </g>
      <g id="Group_73" data-name="Group 73" transform="translate(0.002)">
        <path id="Path_203" data-name="Path 203" d="M389.868,800.954v7.591h-74.1v-7.591a1.894,1.894,0,0,1,1.894-1.894h70.311A1.894,1.894,0,0,1,389.868,800.954Z" transform="translate(-315.77 -799.06)" fill="#4f77d3"/>
        <g id="Group_72" data-name="Group 72" transform="translate(4.108 3.91)">
          <path id="Path_204" data-name="Path 204" d="M337.072,818.182a1.281,1.281,0,1,1-1.282-1.282A1.281,1.281,0,0,1,337.072,818.182Z" transform="translate(-334.51 -816.9)" fill="#fff"/>
          <path id="Path_205" data-name="Path 205" d="M360.462,818.182a1.281,1.281,0,1,1-1.28-1.282A1.282,1.282,0,0,1,360.462,818.182Z" transform="translate(-352.773 -816.9)" fill="#fff"/>
          <path id="Path_206" data-name="Path 206" d="M383.855,818.182a1.282,1.282,0,1,1-1.282-1.282A1.283,1.283,0,0,1,383.855,818.182Z" transform="translate(-371.036 -816.9)" fill="#fff"/>
        </g>
      </g>
      <path id="Path_207" data-name="Path 207" d="M408.643,877.723H354.666a1.965,1.965,0,0,1-1.966-1.964v-10.1a1.965,1.965,0,0,1,1.966-1.964h53.976a1.965,1.965,0,0,1,1.966,1.964v10.1A1.965,1.965,0,0,1,408.643,877.723Z" transform="translate(-344.603 -849.524)" fill="#fff"/>
      <g id="Group_74" data-name="Group 74" transform="translate(8.527 35.025)">
        <path id="Path_208" data-name="Path 208" d="M399.573,961.55H356.01a1.35,1.35,0,0,1,0-2.7h43.563a1.35,1.35,0,0,1,0,2.7Z" transform="translate(-354.66 -958.85)" fill="#fff"/>
        <path id="Path_209" data-name="Path 209" d="M370.834,997.57H356.01a1.351,1.351,0,0,1-1.35-1.35h0a1.351,1.351,0,0,1,1.35-1.35h14.824a1.351,1.351,0,0,1,1.35,1.35h0A1.351,1.351,0,0,1,370.834,997.57Z" transform="translate(-354.66 -986.974)" fill="#fff"/>
      </g>
    </g>
    <path id="Path_214" data-name="Path 214" d="M637.12,493.815l18.057-15.775,19.155,15.775h-7.372l-.191,18.055H644.154V494Z" transform="translate(784.189 2124.877)" fill="#f6f6f6"/>
    <path id="Path_215" data-name="Path 215" d="M907.742,496.1,889.685,511.87,870.53,496.1H877.9l.191-18.055h22.619v17.867Z" transform="translate(601.941 2124.877)" fill="#f6f6f6"/>
    <path id="Path_216" data-name="Path 216" d="M944.082,834.555H928a2.328,2.328,0,0,1-2.328-2.328V823.7A2.328,2.328,0,0,1,928,821.37h16.084a2.328,2.328,0,0,1,2.328,2.328v8.529A2.328,2.328,0,0,1,944.082,834.555Z" transform="translate(558.887 1845.818)" fill="#fff"/>
    <g id="_3133176189904" transform="translate(1512.958 2668.46)">
      <path id="Path_217" data-name="Path 217" d="M1080.936,829.87H1056.59a1.35,1.35,0,0,1,0-2.7h24.346a1.35,1.35,0,1,1,0,2.7Z" transform="translate(-1055.24 -827.17)" fill="#fff"/>
      <path id="Path_218" data-name="Path 218" d="M1064.019,865.88h-7.428a1.351,1.351,0,0,1-1.35-1.35h0a1.351,1.351,0,0,1,1.35-1.35h7.428a1.351,1.351,0,0,1,1.35,1.35h0A1.351,1.351,0,0,1,1064.019,865.88Z" transform="translate(-1055.24 -855.287)" fill="#fff"/>
    </g>
    <g id="_3133176189968" transform="translate(1487.831 2711.493)">
      <path id="Path_219" data-name="Path 219" d="M953.332,1031.615l5.427-3.135a2.67,2.67,0,0,0-2.67-4.625l-9.379,5.414,6.622,2.343Z" transform="translate(-945.372 -1023.497)" fill="#ea4335"/>
      <path id="Path_220" data-name="Path 220" d="M952.655,1058.968a2.67,2.67,0,0,0,1.337-4.982l-9.379-5.414a2.67,2.67,0,0,0-2.67,4.625l9.379,5.414A2.651,2.651,0,0,0,952.655,1058.968Z" transform="translate(-940.607 -1042.795)" fill="#4285f4"/>
      <path id="Path_221" data-name="Path 221" d="M1028.61,1068.2a2.672,2.672,0,0,0,1.333-.358l9.377-5.414-6.536-2.394-5.511,3.183a2.67,2.67,0,0,0,1.337,4.982Z" transform="translate(-1007.233 -1052.022)" fill="#fbbc04"/>
      <path id="Path_222" data-name="Path 222" d="M1037.993,1034.271a2.67,2.67,0,0,0,1.337-4.982l-9.377-5.414a2.67,2.67,0,0,0-2.67,4.625l9.377,5.414A2.65,2.65,0,0,0,1037.993,1034.271Z" transform="translate(-1007.241 -1023.513)" fill="#0f9d58"/>
    </g>
  </g>
</svg>
