<svg xmlns="http://www.w3.org/2000/svg" width="406" height="287.088" viewBox="0 0 406 287.088">
  <g id="Group_149" data-name="Group 149" transform="translate(-757 -2532.912)">
    <rect id="Rectangle_35" data-name="Rectangle 35" width="406" height="197" rx="60" transform="translate(757 2623)" fill="#4285f4"/>
    <g id="Layer_x0020_1" transform="translate(796.472 2532.912)">
      <path id="Path_41" data-name="Path 41" d="M1173.033,627.4a27.519,27.519,0,0,0,2.61-45.221,102.994,102.994,0,0,1,11.341-13.431c1.984-1.982,4-3.852,6.036-5.642q1.222,1.029,2.389,2.137l6.774-4.139a7.354,7.354,0,0,1,10.11,2.441L1219,574.522a7.354,7.354,0,0,1-2.438,10.11l-6.774,4.139a53.033,53.033,0,0,1,2.169,15.653l7.656,2.137a7.353,7.353,0,0,1,5.107,9.06l-3.458,12.4a7.354,7.354,0,0,1-9.059,5.107l-7.649-2.135a53.014,53.014,0,0,1-7.278,9.633l4.14,6.774a7.355,7.355,0,0,1-2.441,10.11L1188,664.217a7.353,7.353,0,0,1-10.11-2.441L1173.746,655a52.94,52.94,0,0,1-12.047,2.079,84.269,84.269,0,0,1-3.026-25.667A27.4,27.4,0,0,0,1173.033,627.4Z" transform="translate(-897.967 -434.034)" fill="#4285f4"/>
      <g id="_3133167381024" transform="translate(0 40.634)">
        <g id="Group_40" data-name="Group 40">
          <path id="Path_42" data-name="Path 42" d="M281.8,365.344H45.081A11.632,11.632,0,0,1,33.45,353.713V192.251A11.632,11.632,0,0,1,45.081,180.62H281.8a11.632,11.632,0,0,1,11.631,11.631V353.713A11.632,11.632,0,0,1,281.8,365.344Z" transform="translate(-25.925 -180.62)" fill="#e2e9ff"/>
          <path id="Path_43" data-name="Path 43" d="M292.58,371.29H57.877a9.216,9.216,0,0,1-9.217-9.217V200.647a9.216,9.216,0,0,1,9.217-9.217h234.7a9.218,9.218,0,0,1,9.217,9.217V362.073A9.216,9.216,0,0,1,292.58,371.29Z" transform="translate(-37.713 -188.998)" fill="#6db8ff"/>
          <path id="Path_44" data-name="Path 44" d="M322.877,384.577H102.99a5.68,5.68,0,0,1-5.68-5.678V234.73a5.681,5.681,0,0,1,5.68-5.68H322.877a5.681,5.681,0,0,1,5.68,5.68V378.9A5.679,5.679,0,0,1,322.877,384.577Z" transform="translate(-75.418 -218.155)" fill="#4285f4"/>
          <path id="Path_45" data-name="Path 45" d="M1.213,959.15A9.634,9.634,0,0,0,0,963.769a9.75,9.75,0,0,0,9.75,9.75H265.283a9.749,9.749,0,0,0,9.75-9.75,9.643,9.643,0,0,0-1.213-4.619H1.215Z" transform="translate(0 -784.005)" fill="#e2e9ff"/>
        </g>
        <path id="Path_46" data-name="Path 46" d="M5.39,1000.21a9.706,9.706,0,0,0,8.535,5.132H269.458A9.712,9.712,0,0,0,278,1000.21H5.39Z" transform="translate(-4.177 -815.828)" fill="#c8d6f2"/>
      </g>
      <path id="Path_47" data-name="Path 47" d="M539.722,180.62H366.24V296.553a4.643,4.643,0,0,0,4.641,4.643H551.353V192.251A11.632,11.632,0,0,0,539.722,180.62Z" transform="translate(-283.848 -139.986)" fill="rgba(66,66,96,0.2)"/>
      <path id="Path_48" data-name="Path 48" d="M593.06,249.62h-193.8a4.641,4.641,0,0,1-4.641-4.641V125.451a4.641,4.641,0,0,1,4.641-4.641h193.8a4.641,4.641,0,0,1,4.641,4.641V244.979A4.641,4.641,0,0,1,593.06,249.62Z" transform="translate(-305.843 -93.632)" fill="rgba(226,233,255,0.21)"/>
      <path id="Path_49" data-name="Path 49" d="M629.162,210.93h-193.8a4.643,4.643,0,0,1-4.643-4.641V86.761a4.641,4.641,0,0,1,4.643-4.641h193.8a4.641,4.641,0,0,1,4.641,4.641V206.289A4.641,4.641,0,0,1,629.162,210.93Z" transform="translate(-333.822 -63.646)" fill="#f9fbfb"/>
      <path id="Path_50" data-name="Path 50" d="M183.08,377.9h-20.6a2.9,2.9,0,0,1-2.9-2.9V353.242a2.9,2.9,0,0,1,2.9-2.9h20.6a2.9,2.9,0,0,1,2.9,2.9V375A2.9,2.9,0,0,1,183.08,377.9Z" transform="translate(-123.68 -271.525)" fill="rgba(66,66,96,0.2)"/>
      <path id="Path_51" data-name="Path 51" d="M176.31,555.871h-20.6a2.9,2.9,0,0,1-2.9-2.9V531.212a2.9,2.9,0,0,1,2.9-2.9h20.6a2.9,2.9,0,0,1,2.9,2.9v21.759A2.9,2.9,0,0,1,176.31,555.871Z" transform="translate(-118.433 -409.457)" fill="#6db8ff"/>
      <path id="Path_52" data-name="Path 52" d="M176.31,729.979h-20.6a2.9,2.9,0,0,1-2.9-2.9V705.32a2.9,2.9,0,0,1,2.9-2.9h20.6a2.9,2.9,0,0,1,2.9,2.9v21.759A2.9,2.9,0,0,1,176.31,729.979Z" transform="translate(-118.433 -544.397)" fill="#6db8ff"/>
      <g id="_3133167385568" transform="translate(40.759 162.488)">
        <path id="Path_53" data-name="Path 53" d="M193.764,728.547a6.277,6.277,0,1,0-12.553,0s-.884,6.648,6.277,11.932C194.648,735.195,193.764,728.547,193.764,728.547Z" transform="translate(-181.176 -722.27)" fill="#9570ed"/>
        <path id="Path_54" data-name="Path 54" d="M193.94,739.042a4.546,4.546,0,1,1,4.162-4.162A4.547,4.547,0,0,1,193.94,739.042Z" transform="translate(-187.26 -728.234)" fill="#f9fbfb"/>
      </g>
      <g id="_3133167387456" transform="translate(38.267 123.589)">
        <g id="Group_42" data-name="Group 42">
          <g id="Group_41" data-name="Group 41">
            <path id="Path_55" data-name="Path 55" d="M187.463,558.042a8.682,8.682,0,1,1-8.682-8.682A8.682,8.682,0,0,1,187.463,558.042Z" transform="translate(-170.1 -549.36)" fill="#9570ed"/>
            <path id="Path_56" data-name="Path 56" d="M191.572,563.831a7,7,0,1,1-7-7A7,7,0,0,1,191.572,563.831Z" transform="translate(-175.889 -555.15)" fill="#f9fbfb"/>
            <path id="Path_57" data-name="Path 57" d="M183.665,554.89a7,7,0,0,1,6.711,5.006.284.284,0,0,0,.27.2.279.279,0,0,0,.268-.358,7.563,7.563,0,0,0-14.5,0,.281.281,0,0,0,.27.358.277.277,0,0,0,.268-.2,7,7,0,0,1,6.713-5.006Z" transform="translate(-174.983 -553.212)" fill="#ba87ed"/>
            <path id="Path_58" data-name="Path 58" d="M186.8,588.94a.835.835,0,0,0-.83.718,7,7,0,0,1-13.872,0,.84.84,0,0,0-1.665.227,8.679,8.679,0,0,0,17.2,0A.838.838,0,0,0,186.8,588.94Z" transform="translate(-170.353 -580.036)" fill="#7e56ed"/>
            <path id="Path_59" data-name="Path 59" d="M191.572,563.831a7,7,0,1,1-7-7A7,7,0,0,1,191.572,563.831Z" transform="translate(-175.889 -555.15)" fill="#f9fbfb"/>
            <path id="Path_60" data-name="Path 60" d="M191.036,597.99a.279.279,0,0,0-.263.187,7,7,0,0,1-13.12,0,.284.284,0,0,0-.263-.187.279.279,0,0,0-.263.378,7.564,7.564,0,0,0,14.178,0,.282.282,0,0,0-.265-.378Z" transform="translate(-175.532 -587.05)" fill="#9570ed"/>
          </g>
          <path id="Path_61" data-name="Path 61" d="M207.437,571.392a.339.339,0,0,1-.337-.337v-4.929a.336.336,0,0,1,.673,0v4.929A.338.338,0,0,1,207.437,571.392Z" transform="translate(-198.776 -562.094)" fill="#9570ed"/>
          <path id="Path_62" data-name="Path 62" d="M207.248,587.949a.335.335,0,0,1,.472-.04l3.042,2.569a.336.336,0,0,1-.432.515l-3.042-2.569a.335.335,0,0,1-.04-.472Z" transform="translate(-198.83 -579.175)" fill="#9570ed"/>
        </g>
        <g id="Group_43" data-name="Group 43" transform="translate(8.484 2.155)">
          <path id="Path_63" data-name="Path 63" d="M208.062,559.613h-.252v-.673h.252Z" transform="translate(-207.81 -558.94)" fill="#cdd6ff"/>
          <path id="Path_64" data-name="Path 64" d="M208.062,614.143h-.252v-.673h.252Z" transform="translate(-207.81 -601.203)" fill="#cdd6ff"/>
        </g>
        <g id="Group_44" data-name="Group 44" transform="translate(2.142 8.499)">
          <path id="Path_65" data-name="Path 65" d="M180.293,587.14v.252h-.673v-.252Z" transform="translate(-179.62 -587.14)" fill="#cdd6ff"/>
          <path id="Path_66" data-name="Path 66" d="M234.813,587.14v.252h-.673v-.252Z" transform="translate(-221.875 -587.14)" fill="#cdd6ff"/>
        </g>
        <g id="Group_45" data-name="Group 45" transform="translate(3.946 3.962)">
          <path id="Path_67" data-name="Path 67" d="M188.295,567.445l-.18.178-.475-.475.178-.178Z" transform="translate(-187.64 -566.97)" fill="#cdd6ff"/>
          <path id="Path_68" data-name="Path 68" d="M226.852,606l-.178.178-.475-.475.178-.18Z" transform="translate(-217.525 -596.847)" fill="#cdd6ff"/>
        </g>
        <g id="Group_46" data-name="Group 46" transform="translate(3.946 3.962)">
          <path id="Path_69" data-name="Path 69" d="M188.115,605.52l.18.18-.477.475L187.64,606Z" transform="translate(-187.64 -596.847)" fill="#cdd6ff"/>
          <path id="Path_70" data-name="Path 70" d="M226.675,566.97l.178.178-.475.475-.178-.178Z" transform="translate(-217.525 -566.97)" fill="#cdd6ff"/>
        </g>
      </g>
      <g id="_3133167395040" transform="translate(2.733 77.947)">
        <path id="Path_71" data-name="Path 71" d="M176.31,374.041h-20.6a2.9,2.9,0,0,1-2.9-2.9V349.382a2.9,2.9,0,0,1,2.9-2.9h20.6a2.9,2.9,0,0,1,2.9,2.9v21.759A2.9,2.9,0,0,1,176.31,374.041Z" transform="translate(-121.166 -346.48)" fill="#6db8ff"/>
        <g id="Group_52" data-name="Group 52" transform="translate(0 14.506)">
          <path id="Path_72" data-name="Path 72" d="M142.3,421.185l2.175-1.523.981-3.588-1.089-.218-.652,1.3.652-6.2-1.089.218-1.087,5.982-1.3,2.83,1.2.76Z" transform="translate(-111.928 -410.96)" fill="#f6d3a8"/>
          <path id="Path_73" data-name="Path 73" d="M204.4,465.122l.29-2.612,3.19-3.19.727,1.015-1.161,1.3,6.092-1.451V461.5l-5.658,2.175-1.161,2.031Z" transform="translate(-161.15 -448.441)" fill="#f6d3a8"/>
          <g id="Group_51" data-name="Group 51" transform="translate(0 8.031)">
            <g id="Group_50" data-name="Group 50">
              <path id="Path_74" data-name="Path 74" d="M27.84,772.05,39.7,830.1l8.981-.961-6.092-2.245,2.243-.641-3.206-54.2Z" transform="translate(-24.31 -698.848)" fill="#544db8"/>
              <path id="Path_75" data-name="Path 75" d="M57.806,756.7s15.073,14.112,12.828,31.109c-2.565,13.471-8.018,18.6-8.018,18.6l-1.6-.322,2.486,6.574-7.217-7.7s8.9-12.268,3.368-25.017A34.362,34.362,0,0,0,42.09,762.635s10.342-9.381,11.064-9.14A49.752,49.752,0,0,1,57.8,756.7Z" transform="translate(-35.354 -684.463)" fill="#544db8"/>
              <g id="Group_49" data-name="Group 49">
                <path id="Path_76" data-name="Path 76" d="M41.016,446.66s-24.774,30.067-27.662,36.08c0,0-1.2,2.164-1.2,8.418s2.164,29.347,2.164,29.347l25.255,1.442s-8.178-28.143-8.418-28.863-4.328-5.051-8.178-6.013l21.167-38.245-3.127-2.164Z" transform="translate(-12.15 -446.66)" fill="#ff8a3f"/>
                <g id="Group_48" data-name="Group 48" transform="translate(6.501 22.804)">
                  <path id="Path_77" data-name="Path 77" d="M52.346,606.116s1.053,3.122,1.633,5.01c0,0-5.156-.11-6.97-2.506l1.923-4.61Z" transform="translate(-45.669 -591.416)" fill="#f6d3a8"/>
                  <g id="Group_47" data-name="Group 47">
                    <path id="Path_78" data-name="Path 78" d="M51.644,552.971s1.525,8.879,0,10.9-6.751-1.413-8.929-4.641-2.614-10.495,1.089-11.1a6.85,6.85,0,0,1,7.842,4.844Z" transform="translate(-41.047 -548.027)" fill="#f6d3a8"/>
                  </g>
                </g>
                <path id="Path_79" data-name="Path 79" d="M74.264,516.683s19.862-12.495,21.464-15.057S101.816,480,101.816,480l3.845.961s-2.243,21.3-2.884,23.548-20.184,23.066-24.67,23.066-6.088-5.766-3.845-10.893Z" transform="translate(-59.509 -472.5)" fill="#ff8a3f"/>
              </g>
            </g>
            <path id="Path_80" data-name="Path 80" d="M33.672,540.232a7.528,7.528,0,0,1,7.253-2.756c4.641.87,5.8-.146,5.8-.146s-1.015,5.078-4.207,6.238-4.063.871-4.063.871a10.819,10.819,0,0,1,2.175,3.046c.436,1.3-1.451-1.6-2.175-.58s0,3.19,1.451,3.046.58,1.015,0,2.175-1.451,2.612-2.322,2.175a10.248,10.248,0,0,1-5.078-5.8c-1.161-3.627-1.451-7.107,1.161-8.268Z" transform="translate(-27.268 -516.932)" fill="#544db8"/>
          </g>
        </g>
      </g>
      <path id="Path_81" data-name="Path 81" d="M544.928,244.78H488.355a2.176,2.176,0,0,1-2.175-2.175V144.255a2.176,2.176,0,0,1,2.175-2.175h56.573a2.176,2.176,0,0,1,2.175,2.175V242.6A2.176,2.176,0,0,1,544.928,244.78Z" transform="translate(-376.805 -110.117)" fill="#e2e9ff"/>
      <path id="Path_82" data-name="Path 82" d="M570.316,187.534H534.341a1.741,1.741,0,0,1-1.741-1.741v-5.221a1.741,1.741,0,0,1,1.741-1.741h35.975a1.74,1.74,0,0,1,1.741,1.741v5.221A1.741,1.741,0,0,1,570.316,187.534Z" transform="translate(-412.782 -138.599)" fill="#4285f4"/>
      <path id="Path_83" data-name="Path 83" d="M552.8,409.57h-7.836a3.335,3.335,0,0,1,0-6.67H552.8a3.335,3.335,0,0,1,0,6.67Z" transform="translate(-419.78 -312.26)" fill="#6db8ff"/>
      <path id="Path_84" data-name="Path 84" d="M653.39,409.57h-7.836a3.335,3.335,0,0,1,0-6.67h7.836a3.335,3.335,0,1,1,0,6.67Z" transform="translate(-497.741 -312.26)" fill="#9570ed"/>
      <path id="Path_85" data-name="Path 85" d="M571.087,262.883H528.73V256.21h42.357Z" transform="translate(-409.782 -198.571)" fill="#f9fbfb"/>
      <path id="Path_86" data-name="Path 86" d="M571.087,313.173H528.73V306.5h42.357Z" transform="translate(-409.782 -237.547)" fill="#f9fbfb"/>
      <path id="Path_87" data-name="Path 87" d="M593.721,356.383H569.35V354.86h24.371Z" transform="translate(-441.264 -275.028)" fill="#cdd4ff"/>
      <path id="Path_88" data-name="Path 88" d="M1023.462,455.652H947.306a8.486,8.486,0,1,1,0-16.972h76.156a8.486,8.486,0,1,1,0,16.972Z" transform="translate(-727.615 -339.991)" fill="#9570ed"/>
      <g id="_3133167402784" transform="translate(175.52 29.788)">
        <path id="Path_89" data-name="Path 89" d="M834.6,146.336H787.163a6.963,6.963,0,1,1,0-13.926H834.6a6.963,6.963,0,1,1,0,13.926Z" transform="translate(-780.2 -132.41)" fill="#e2e9ff"/>
        <path id="Path_90" data-name="Path 90" d="M846.461,155.865a2.175,2.175,0,1,1-2.175-2.175A2.176,2.176,0,0,1,846.461,155.865Z" transform="translate(-828.182 -148.903)" fill="#ffc13f"/>
        <path id="Path_91" data-name="Path 91" d="M912.871,155.865a2.176,2.176,0,1,1-2.175-2.175A2.176,2.176,0,0,1,912.871,155.865Z" transform="translate(-879.652 -148.903)" fill="#90c13f"/>
        <path id="Path_92" data-name="Path 92" d="M974.131,155.865a2.176,2.176,0,1,1-2.175-2.175A2.176,2.176,0,0,1,974.131,155.865Z" transform="translate(-927.13 -148.903)" fill="#eb4f23"/>
      </g>
      <g id="_3133167405312" transform="translate(39.304 84.894)">
        <path id="Path_93" data-name="Path 93" d="M197.191,397.01a5.3,5.3,0,1,1-5.3-5.3A5.3,5.3,0,0,1,197.191,397.01Z" transform="translate(-183.917 -388.482)" fill="#fff"/>
        <g id="Group_53" data-name="Group 53">
          <path id="Path_94" data-name="Path 94" d="M188.177,379.488h-.934L185.9,377.6a.566.566,0,0,0-.461-.238h-5.354a.569.569,0,0,0-.461.238l-1.341,1.89h-.934a2.648,2.648,0,0,0-2.641,2.641v7.683a2.648,2.648,0,0,0,2.641,2.641h10.828a2.648,2.648,0,0,0,2.641-2.641v-7.683a2.648,2.648,0,0,0-2.641-2.641Zm-5.415,10.31h0a3.893,3.893,0,1,1,3.894-3.894A3.894,3.894,0,0,1,182.762,389.8Z" transform="translate(-174.71 -377.36)" fill="#9570ed"/>
          <path id="Path_95" data-name="Path 95" d="M204.207,406.474a2.574,2.574,0,1,1-2.574-2.574A2.573,2.573,0,0,1,204.207,406.474Z" transform="translate(-193.582 -397.929)" fill="#6db8ff"/>
        </g>
      </g>
      <g id="_3133167408704" transform="translate(193.556 57.968)">
        <path id="Path_96" data-name="Path 96" d="M903.622,288.335H863.8a3.432,3.432,0,0,1-3.433-3.433V261.1a3.433,3.433,0,0,1,3.433-3.433h39.819a3.432,3.432,0,0,1,3.433,3.433v23.8A3.432,3.432,0,0,1,903.622,288.335Z" transform="translate(-860.37 -257.67)" fill="#e2e9ff"/>
        <path id="Path_97" data-name="Path 97" d="M897.8,281.876h-.09a1.2,1.2,0,0,1-.6-.155l-18-10a1.228,1.228,0,1,1,1.192-2.146l17.444,9.692,17.444-9.692a1.228,1.228,0,0,1,1.192,2.146l-18,10a1.228,1.228,0,0,1-.6.155Z" transform="translate(-874.41 -266.779)" fill="#fd493f"/>
      </g>
      <path id="Path_98" data-name="Path 98" d="M1169.692,122.141h-51.785a3.046,3.046,0,0,1-3.046-3.046V50.336a3.046,3.046,0,0,1,3.046-3.046h51.785a3.045,3.045,0,0,1,3.046,3.046V119.1A3.045,3.045,0,0,1,1169.692,122.141Z" transform="translate(-864.052 -36.651)" fill="#544db8"/>
      <g id="_3133167407232" transform="translate(259.51 19.181)">
        <path id="Path_99" data-name="Path 99" d="M1157.767,86.752h-3.856c-.2,0-.371-.333-.371-.747s.167-.745.371-.745h3.856c.2,0,.371.333.371.745S1157.972,86.752,1157.767,86.752Z" transform="translate(-1153.54 -85.26)" fill="#0cf"/>
        <path id="Path_100" data-name="Path 100" d="M1201.189,86.752h-22.058c-.2,0-.371-.333-.371-.747s.167-.745.371-.745h22.058c.2,0,.371.333.371.745S1201.394,86.752,1201.189,86.752Z" transform="translate(-1173.086 -85.26)" fill="#0cf"/>
        <path id="Path_101" data-name="Path 101" d="M1186.158,100.452h-7.037c-.2,0-.371-.335-.371-.745s.167-.747.371-.747h7.037c.2,0,.371.333.371.747S1186.363,100.452,1186.158,100.452Z" transform="translate(-1173.079 -95.878)" fill="#ff56a8"/>
        <path id="Path_102" data-name="Path 102" d="M1226.913,100.452h-10.141c-.2,0-.371-.335-.371-.745s.167-.747.371-.747h10.141c.2,0,.371.333.371.747S1227.118,100.452,1226.913,100.452Z" transform="translate(-1202.259 -95.878)" fill="#e2e9ff"/>
        <path id="Path_103" data-name="Path 103" d="M1201.189,167.152h-22.058c-.2,0-.371-.333-.371-.745s.167-.747.371-.747h22.058c.2,0,.371.335.371.747S1201.394,167.152,1201.189,167.152Z" transform="translate(-1173.086 -147.573)" fill="#e2e9ff"/>
        <path id="Path_104" data-name="Path 104" d="M1157.767,180.852h-3.856c-.2,0-.371-.333-.371-.745s.167-.747.371-.747h3.856c.2,0,.371.335.371.747S1157.972,180.852,1157.767,180.852Z" transform="translate(-1153.54 -158.19)" fill="#0cf"/>
        <path id="Path_105" data-name="Path 105" d="M1186.158,180.852h-7.037c-.2,0-.371-.333-.371-.745s.167-.747.371-.747h7.037c.2,0,.371.335.371.747S1186.363,180.852,1186.158,180.852Z" transform="translate(-1173.079 -158.19)" fill="#e2e9ff"/>
        <path id="Path_106" data-name="Path 106" d="M1226.913,180.852h-10.141c-.2,0-.371-.333-.371-.745s.167-.747.371-.747h10.141c.2,0,.371.335.371.747S1227.118,180.852,1226.913,180.852Z" transform="translate(-1202.259 -158.19)" fill="#ff56a8"/>
        <path id="Path_107" data-name="Path 107" d="M1206.651,114.152h-27.529c-.2,0-.371-.333-.371-.745s.167-.747.371-.747h27.529c.2,0,.371.333.371.747S1206.855,114.152,1206.651,114.152Z" transform="translate(-1173.079 -106.496)" fill="#ff56a8"/>
        <path id="Path_108" data-name="Path 108" d="M1253.693,127.852h-6.409a.394.394,0,0,1-.394-.391v-.706a.394.394,0,0,1,.394-.394h6.409a.392.392,0,0,1,.392.394v.706A.392.392,0,0,1,1253.693,127.852Z" transform="translate(-1225.889 -117.114)" fill="#0cf"/>
        <path id="Path_109" data-name="Path 109" d="M1188.266,127.852h-9.145c-.2,0-.371-.333-.371-.745s.167-.747.371-.747h9.145c.2,0,.371.335.371.747S1188.471,127.852,1188.266,127.852Z" transform="translate(-1173.079 -117.114)" fill="#e2e9ff"/>
        <path id="Path_110" data-name="Path 110" d="M1228.908,127.852h-3.626c-.2,0-.371-.333-.371-.745s.167-.747.371-.747h3.626c.2,0,.371.335.371.747S1229.113,127.852,1228.908,127.852Z" transform="translate(-1208.854 -117.114)" fill="#0cf"/>
        <path id="Path_111" data-name="Path 111" d="M1157.767,141.092h-3.856c-.2,0-.371-.335-.371-.747s.167-.745.371-.745h3.856c.2,0,.371.333.371.745S1157.972,141.092,1157.767,141.092Z" transform="translate(-1153.54 -127.375)" fill="#e2e9ff"/>
        <path id="Path_112" data-name="Path 112" d="M1206.651,141.092h-27.529c-.2,0-.371-.335-.371-.747s.167-.745.371-.745h27.529c.2,0,.371.333.371.745S1206.855,141.092,1206.651,141.092Z" transform="translate(-1173.079 -127.375)" fill="#e2e9ff"/>
        <path id="Path_113" data-name="Path 113" d="M1157.767,193.542h-3.856c-.2,0-.371-.335-.371-.745s.167-.747.371-.747h3.856c.2,0,.371.335.371.747S1157.972,193.542,1157.767,193.542Z" transform="translate(-1153.54 -168.026)" fill="#e2e9ff"/>
        <path id="Path_114" data-name="Path 114" d="M1256.381,193.549h-9.03a.462.462,0,0,1-.461-.461v-.567a.462.462,0,0,1,.461-.461h9.03a.462.462,0,0,1,.461.461v.567A.462.462,0,0,1,1256.381,193.549Z" transform="translate(-1225.889 -168.033)" fill="#e2e9ff"/>
        <path id="Path_115" data-name="Path 115" d="M1188.266,193.542h-9.145c-.2,0-.371-.335-.371-.745s.167-.747.371-.747h9.145c.2,0,.371.335.371.747S1188.471,193.542,1188.266,193.542Z" transform="translate(-1173.079 -168.026)" fill="#e2e9ff"/>
        <path id="Path_116" data-name="Path 116" d="M1228.908,193.542h-3.626c-.2,0-.371-.335-.371-.745s.167-.747.371-.747h3.626c.2,0,.371.335.371.747S1229.113,193.542,1228.908,193.542Z" transform="translate(-1208.854 -168.026)" fill="#e2e9ff"/>
        <path id="Path_117" data-name="Path 117" d="M1157.767,206.782h-3.856c-.2,0-.371-.333-.371-.747s.167-.745.371-.745h3.856c.2,0,.371.333.371.745S1157.972,206.782,1157.767,206.782Z" transform="translate(-1153.54 -178.287)" fill="#ffc359"/>
        <path id="Path_118" data-name="Path 118" d="M1183.888,206.782h-4.767c-.2,0-.371-.333-.371-.747s.167-.745.371-.745h4.767c.2,0,.371.333.371.745S1184.093,206.782,1183.888,206.782Z" transform="translate(-1173.079 -178.287)" fill="#0cf"/>
        <path id="Path_119" data-name="Path 119" d="M1153.911,154.792c-.2,0-.371-.333-.371-.747s.167-.745.371-.745h3.856c.2,0,.371.333.371.745s-.166.747-.371.747Z" transform="translate(-1153.54 -137.993)" fill="#0cf"/>
        <path id="Path_120" data-name="Path 120" d="M1257.646,154.8H1247.38a.49.49,0,0,1-.49-.49V153.8a.49.49,0,0,1,.49-.49h10.266a.49.49,0,0,1,.49.49v.508A.49.49,0,0,1,1257.646,154.8Z" transform="translate(-1225.889 -138.001)" fill="#e2e9ff"/>
        <path id="Path_121" data-name="Path 121" d="M1188.266,154.792h-9.145c-.2,0-.371-.333-.371-.747s.167-.745.371-.745h9.145c.2,0,.371.333.371.745S1188.471,154.792,1188.266,154.792Z" transform="translate(-1173.079 -137.993)" fill="#ffc359"/>
        <path id="Path_122" data-name="Path 122" d="M1228.908,154.792h-3.626c-.2,0-.371-.333-.371-.747s.167-.745.371-.745h3.626c.2,0,.371.333.371.745S1229.113,154.792,1228.908,154.792Z" transform="translate(-1208.854 -137.993)" fill="#ffc359"/>
        <path id="Path_123" data-name="Path 123" d="M1201.189,220.872h-22.058c-.2,0-.371-.333-.371-.745s.167-.747.371-.747h22.058c.2,0,.371.333.371.747S1201.394,220.872,1201.189,220.872Z" transform="translate(-1173.086 -189.207)" fill="#e2e9ff"/>
        <path id="Path_124" data-name="Path 124" d="M1186.158,234.572h-7.037c-.2,0-.371-.335-.371-.747s.167-.745.371-.745h7.037c.2,0,.371.333.371.745S1186.363,234.572,1186.158,234.572Z" transform="translate(-1173.079 -199.825)" fill="#e2e9ff"/>
        <path id="Path_125" data-name="Path 125" d="M1226.913,234.572h-10.141c-.2,0-.371-.335-.371-.747s.167-.745.371-.745h10.141c.2,0,.371.333.371.745S1227.118,234.572,1226.913,234.572Z" transform="translate(-1202.259 -199.825)" fill="#e2e9ff"/>
        <path id="Path_126" data-name="Path 126" d="M1201.189,301.272h-22.058c-.2,0-.371-.333-.371-.747s.167-.745.371-.745h22.058c.2,0,.371.333.371.745S1201.394,301.272,1201.189,301.272Z" transform="translate(-1173.086 -251.52)" fill="#e2e9ff"/>
        <path id="Path_127" data-name="Path 127" d="M1157.767,314.972h-3.856c-.2,0-.371-.333-.371-.745s.167-.747.371-.747h3.856c.2,0,.371.333.371.747S1157.972,314.972,1157.767,314.972Z" transform="translate(-1153.54 -262.138)" fill="#ff56a8"/>
        <path id="Path_128" data-name="Path 128" d="M1186.158,314.972h-7.037c-.2,0-.371-.333-.371-.745s.167-.747.371-.747h7.037c.2,0,.371.333.371.747S1186.363,314.972,1186.158,314.972Z" transform="translate(-1173.079 -262.138)" fill="#0cf"/>
        <path id="Path_129" data-name="Path 129" d="M1226.913,314.972h-10.141c-.2,0-.371-.333-.371-.745s.167-.747.371-.747h10.141c.2,0,.371.333.371.747S1227.118,314.972,1226.913,314.972Z" transform="translate(-1202.259 -262.138)" fill="#e2e9ff"/>
        <path id="Path_130" data-name="Path 130" d="M1157.767,248.272h-3.856c-.2,0-.371-.333-.371-.747s.167-.745.371-.745h3.856c.2,0,.371.333.371.745S1157.972,248.272,1157.767,248.272Z" transform="translate(-1153.54 -210.443)" fill="#ff56a8"/>
        <path id="Path_131" data-name="Path 131" d="M1198.823,248.272h-19.615a.447.447,0,0,1-.448-.448v-.6a.447.447,0,0,1,.448-.448h19.615a.447.447,0,0,1,.448.448v.6A.447.447,0,0,1,1198.823,248.272Z" transform="translate(-1173.086 -210.443)" fill="#ff56a8"/>
        <path id="Path_132" data-name="Path 132" d="M1157.767,261.971h-3.856c-.2,0-.371-.333-.371-.745s.167-.747.371-.747h3.856c.2,0,.371.333.371.747S1157.972,261.971,1157.767,261.971Z" transform="translate(-1153.54 -221.061)" fill="#e2e9ff"/>
        <path id="Path_133" data-name="Path 133" d="M1188.266,261.971h-9.145c-.2,0-.371-.333-.371-.745s.167-.747.371-.747h9.145c.2,0,.371.333.371.747S1188.471,261.971,1188.266,261.971Z" transform="translate(-1173.079 -221.061)" fill="#e2e9ff"/>
        <path id="Path_134" data-name="Path 134" d="M1228.908,261.971h-3.626c-.2,0-.371-.333-.371-.745s.167-.747.371-.747h3.626c.2,0,.371.333.371.747S1229.113,261.971,1228.908,261.971Z" transform="translate(-1208.854 -221.061)" fill="#e2e9ff"/>
        <path id="Path_135" data-name="Path 135" d="M1157.767,275.212h-3.856c-.2,0-.371-.333-.371-.745s.167-.747.371-.747h3.856c.2,0,.371.335.371.747S1157.972,275.212,1157.767,275.212Z" transform="translate(-1153.54 -231.322)" fill="#e2e9ff"/>
        <path id="Path_136" data-name="Path 136" d="M1204.077,275.212h-24.823a.5.5,0,0,1-.5-.5v-.486a.5.5,0,0,1,.5-.5h24.823a.5.5,0,0,1,.5.5v.486A.5.5,0,0,1,1204.077,275.212Z" transform="translate(-1173.079 -231.322)" fill="#e2e9ff"/>
        <path id="Path_137" data-name="Path 137" d="M1157.767,327.669h-3.856c-.2,0-.371-.333-.371-.745s.167-.745.371-.745h3.856c.2,0,.371.333.371.745S1157.972,327.669,1157.767,327.669Z" transform="translate(-1153.54 -271.981)" fill="#e2e9ff"/>
        <path id="Path_138" data-name="Path 138" d="M1259.434,327.669h-12.173c-.2,0-.371-.333-.371-.745s.166-.745.371-.745h12.173c.2,0,.371.333.371.745S1259.639,327.669,1259.434,327.669Z" transform="translate(-1225.889 -271.981)" fill="#e2e9ff"/>
        <path id="Path_139" data-name="Path 139" d="M1188.266,327.669h-9.145c-.2,0-.371-.333-.371-.745s.167-.745.371-.745h9.145c.2,0,.371.333.371.745S1188.471,327.669,1188.266,327.669Z" transform="translate(-1173.079 -271.981)" fill="#e2e9ff"/>
        <path id="Path_140" data-name="Path 140" d="M1228.908,327.669h-3.626c-.2,0-.371-.333-.371-.745s.167-.745.371-.745h3.626c.2,0,.371.333.371.745S1229.113,327.669,1228.908,327.669Z" transform="translate(-1208.854 -271.981)" fill="#e2e9ff"/>
        <path id="Path_141" data-name="Path 141" d="M1195.4,340.894H1179.16a.409.409,0,0,1-.409-.409v-.675a.409.409,0,0,1,.409-.409H1195.4a.408.408,0,0,1,.41.409v.675A.408.408,0,0,1,1195.4,340.894Z" transform="translate(-1173.079 -282.227)" fill="#ffc359"/>
        <path id="Path_142" data-name="Path 142" d="M1258.293,288.912h-10.9a.505.505,0,0,1-.506-.5v-.481a.507.507,0,0,1,.506-.506h10.9a.5.5,0,0,1,.5.506v.481A.5.5,0,0,1,1258.293,288.912Z" transform="translate(-1225.889 -241.94)" fill="#ff56a8"/>
        <path id="Path_143" data-name="Path 143" d="M1188.266,288.919h-9.145c-.2,0-.371-.333-.371-.745s.167-.745.371-.745h9.145c.2,0,.371.333.371.745S1188.471,288.919,1188.266,288.919Z" transform="translate(-1173.079 -241.948)" fill="#ffc359"/>
        <path id="Path_144" data-name="Path 144" d="M1228.908,288.919h-3.626c-.2,0-.371-.333-.371-.745s.167-.745.371-.745h3.626c.2,0,.371.333.371.745S1229.113,288.919,1228.908,288.919Z" transform="translate(-1208.854 -241.948)" fill="#ffc359"/>
      </g>
      <g id="_3133167425440" transform="translate(291.836)">
        <path id="Path_145" data-name="Path 145" d="M1321.6,12.184A12.184,12.184,0,1,1,1309.414,0,12.185,12.185,0,0,1,1321.6,12.184Z" transform="translate(-1297.23 0)" fill="#e2e9ff"/>
      </g>
      <g id="_3133167425856" transform="translate(210.204 204.427)">
        <path id="Path_146" data-name="Path 146" d="M960.8,921.907a13.217,13.217,0,1,1-13.217-13.217A13.218,13.218,0,0,1,960.8,921.907Z" transform="translate(-934.37 -908.69)" fill="#fabb05"/>
        <g id="Group_54" data-name="Group 54" transform="translate(6.234 6.232)">
          <path id="Path_147" data-name="Path 147" d="M976.042,942.62a6.2,6.2,0,0,1-.394,2.252,3.707,3.707,0,0,1-1.111,1.6,2.577,2.577,0,0,1-1.667.581,2.1,2.1,0,0,1-1.12-.3,1.749,1.749,0,0,1-.7-.8h-.137a2.929,2.929,0,0,1-2.351,1.1,3.142,3.142,0,0,1-2.385-.909,3.456,3.456,0,0,1-.873-2.49,3.853,3.853,0,0,1,1.145-2.907,4.128,4.128,0,0,1,2.992-1.1,10.3,10.3,0,0,1,1.62.142,9.082,9.082,0,0,1,1.458.337l-.2,4.18q0,1.188.65,1.188c.365,0,.655-.268.871-.8a5.642,5.642,0,0,0,.324-2.09,5.013,5.013,0,0,0-.574-2.432,3.876,3.876,0,0,0-1.611-1.611,4.939,4.939,0,0,0-2.371-.556,6.077,6.077,0,0,0-3,.709,4.732,4.732,0,0,0-1.953,2.047,6.739,6.739,0,0,0-.679,3.091,4.407,4.407,0,0,0,4.913,4.88,11.1,11.1,0,0,0,1.991-.2,13.08,13.08,0,0,0,2.137-.585v1.64a10.253,10.253,0,0,1-4.061.778,7.1,7.1,0,0,1-5.064-1.71,6.214,6.214,0,0,1-1.816-4.754,7.944,7.944,0,0,1,.927-3.833,6.753,6.753,0,0,1,2.641-2.7,7.811,7.811,0,0,1,3.944-.979,7.167,7.167,0,0,1,3.359.77,5.448,5.448,0,0,1,2.281,2.189,6.534,6.534,0,0,1,.8,3.273Zm-8.751,1.069h0q0,1.8,1.469,1.8a1.37,1.37,0,0,0,1.172-.542,3.425,3.425,0,0,0,.486-1.764l.113-1.89a4.659,4.659,0,0,0-.983-.095,2.115,2.115,0,0,0-1.663.666,2.639,2.639,0,0,0-.594,1.82Z" transform="translate(-962.08 -936.39)" fill="#fff"/>
        </g>
      </g>
      <g id="_3133167427712" transform="translate(247.202 112.99)">
        <path id="Path_148" data-name="Path 148" d="M1196.235,630.869s-1.015,3.01-1.575,4.832c0,0,4.972-.106,6.722-2.416l-1.856-4.445-3.291,2.031Z" transform="translate(-1173.101 -600.361)" fill="#f6d3a8"/>
        <g id="Group_55" data-name="Group 55" transform="translate(18.247 113.256)">
          <path id="Path_149" data-name="Path 149" d="M1198.34,1005.95l.423,1.894,2.747.155-.58-2.319Z" transform="translate(-1194.2 -1005.68)" fill="#f69a74"/>
          <path id="Path_150" data-name="Path 150" d="M1184.5,1015.3s-4.6,2.4-4.562,2.551,7.77-.657,7.77-.657l-.464-1.739Z" transform="translate(-1179.939 -1013.136)" fill="#544db8"/>
        </g>
        <g id="Group_56" data-name="Group 56" transform="translate(43.321 108.525)">
          <path id="Path_151" data-name="Path 151" d="M1301.45,985.836l1.078,1.615,2.616-.844-1.374-1.957Z" transform="translate(-1299.187 -984.65)" fill="#f69a74"/>
          <path id="Path_152" data-name="Path 152" d="M1294.732,994.194s-3.429,3.892-3.339,4.022,7.015-3.411,7.015-3.411l-1.059-1.456Z" transform="translate(-1291.392 -991.393)" fill="#544db8"/>
        </g>
        <path id="Path_153" data-name="Path 153" d="M1167.208,783.542s-7.888,25.748,4.639,50.566h3.712s-7.422-28.067,1.856-50.8Z" transform="translate(-1149.926 -720.08)" fill="#fabb05"/>
        <path id="Path_154" data-name="Path 154" d="M1206.09,775.827s1.222,26.9,21.359,46.069l3.5-1.246s-16.421-23.941-15.318-48.47l-9.534,3.647Z" transform="translate(-1181.96 -711.454)" fill="#fabb05"/>
        <g id="Group_57" data-name="Group 57">
          <path id="Path_155" data-name="Path 155" d="M1175.873,506.01l.009-1.588a.8.8,0,0,0-.027-.207l-.3-1.136-.9.232-.922-.853a.784.784,0,0,0-1.242.238,8.749,8.749,0,0,0-.711,1.975.771.771,0,0,0,.2.65l1.41,1.543a.785.785,0,0,0,.8.223l1.125-.333a.785.785,0,0,0,.562-.747Z" transform="translate(-1155.356 -502.248)" fill="#f69a74"/>
          <path id="Path_156" data-name="Path 156" d="M1192.491,554.463s-10.286-11.023-10.963-15.149-2.18-19.473-2.18-19.473l-3.172.612s-1.089,21.955-.126,24.481,7.147,15.412,11.177,16.6,6.857-2.783,5.267-7.071Z" transform="translate(-1158.37 -515.883)" fill="#ff4f72"/>
          <path id="Path_157" data-name="Path 157" d="M1182.378,578.79s-2.322,7.719-.85,9.665,6.879.185,8.981-2.931,2.52-10.119-1.051-10.7-6.24.855-7.08,3.968Z" transform="translate(-1162.545 -558.394)" fill="#f69a74"/>
          <path id="Path_158" data-name="Path 158" d="M1183.644,680.761s2.088-22.267,2.088-28.3c0-.277,0-.536-.009-.794-1.552-3.921-5.406-3.845-6.949-3.536s-7.577,2.243-7.539,2.475l-.016-.02a14.909,14.909,0,0,0-3.811,3.732,35.942,35.942,0,0,0-.7,25.516l16.933.927Z" transform="translate(-1149.893 -615.212)" fill="#ff4f72"/>
          <path id="Path_159" data-name="Path 159" d="M1103.1,512.856l-.27-1.564a.787.787,0,0,0-.063-.2l-.5-1.064-.851.387-1.057-.677a.785.785,0,0,0-1.181.452,8.649,8.649,0,0,0-.353,2.07.781.781,0,0,0,.311.605l1.66,1.273a.783.783,0,0,0,.828.079l1.051-.524a.785.785,0,0,0,.423-.835Z" transform="translate(-1098.829 -507.958)" fill="#f69a74"/>
          <path id="Path_160" data-name="Path 160" d="M1128.606,556.3s-12.063-9.046-13.453-12.99-5.568-18.787-5.568-18.787l-3.015,1.159s2.783,21.8,4.175,24.123,9.743,13.917,13.917,14.38,6.263-3.944,3.944-7.887Z" transform="translate(-1104.829 -519.51)" fill="#ff4f72"/>
          <path id="Path_161" data-name="Path 161" d="M1186.907,572.839s-6.185-2.63-9.123,2.783c-1.546,3.4,3.4.155,4.331,1.237s-1.237,3.248-.619,4.02,1.7-1.393,2.319-.155-.927,1.392-2.011,2.783.927,3.4-.619,4.639-5.876,2.164-3.246,8.814-4.331,8.351-1.393,17.473,22.886,14.227,26.6,3.4-8.659-13.453-7.887-18.247,3.557-6.031-.155-10.825-6.031-7.577-4.949-10.67a4.054,4.054,0,0,0-3.249-5.258Z" transform="translate(-1158.491 -556.464)" fill="#544db8"/>
        </g>
      </g>
      <path id="Path_162" data-name="Path 162" d="M1254.318,408.85a13.3,13.3,0,1,0,13.3,13.3,13.3,13.3,0,0,0-13.3-13.3Zm-6.722,12.263h0a1.625,1.625,0,1,1,1.624,1.624A1.625,1.625,0,0,1,1247.6,421.113Zm6.722,8.292h0a4.23,4.23,0,0,1-4.189-3.656h8.375A4.23,4.23,0,0,1,1254.318,429.405Zm5.1-6.666h0a1.624,1.624,0,1,1,1.624-1.624A1.625,1.625,0,0,1,1259.416,422.74Z" transform="translate(-961.83 -316.872)" fill="#fabb05"/>
      <path id="Path_163" data-name="Path 163" d="M419.458,772.062l-.778-1.557,21.077-10.54,26.594.436,28.872-10.877h22.054l23.547-7.847.191.02,18.884,2.146,10.645-5.534.8,1.543-11.113,5.779-.265-.029-18.956-2.155-23.592,7.818H495.383L466.657,762.15l-.169,0-26.333-.432Z" transform="translate(-324.49 -572.214)" fill="#f9fbfb"/>
      <g id="_3131096042784" transform="translate(157.244 76.206)">
        <path id="Path_164" data-name="Path 164" d="M766.02,685.386s20.888,33.833,18.276,57.369l14.216.295-6.092-3.53,1.741-.295s-5.221-36.481-10.155-49.426c-5.165-13.559-6.672-8.531-6.672-8.531l-11.314,4.119Z" transform="translate(-750.934 -603.504)" fill="#544db8"/>
        <path id="Path_165" data-name="Path 165" d="M706.5,689.381s1.161,23.5-.58,32.494-6.963,26.69-6.963,26.69l13.345.29-3.505-2.475-2.225-1.3s9.5-25.529,10.371-37.716a159.71,159.71,0,0,1,2.322-19.147L706.5,689.381Z" transform="translate(-698.96 -609.598)" fill="#544db8"/>
        <g id="Group_63" data-name="Group 63" transform="translate(4.475)">
          <path id="Path_166" data-name="Path 166" d="M849,348.967l2.175-1.523.981-3.591-1.089-.218-.652,1.307.652-6.2-1.089.218-1.086,5.984-1.307,2.828,1.2.763Z" transform="translate(-818.62 -338.74)" fill="#f6d3a8"/>
          <path id="Path_167" data-name="Path 167" d="M911.1,392.9l.29-2.61,3.19-3.192.727,1.017-1.161,1.3,6.092-1.451v1.3l-5.658,2.175-1.161,2.031Z" transform="translate(-867.85 -376.221)" fill="#f6d3a8"/>
          <g id="Group_62" data-name="Group 62" transform="translate(0 8.031)">
            <g id="Group_61" data-name="Group 61">
              <g id="Group_60" data-name="Group 60">
                <path id="Path_168" data-name="Path 168" d="M747.716,374.44s-24.776,30.067-27.662,36.08c0,0-1.2,2.164-1.2,8.418s2.164,29.345,2.164,29.345l25.257,1.444s-8.178-28.143-8.418-28.863-4.331-5.051-8.178-6.013l21.167-38.245-3.127-2.164Z" transform="translate(-718.85 -374.44)" fill="#6db8ff"/>
                <g id="Group_59" data-name="Group 59" transform="translate(6.499 22.804)">
                  <path id="Path_169" data-name="Path 169" d="M759.036,533.9s1.053,3.122,1.633,5.01c0,0-5.154-.108-6.97-2.506l1.923-4.61Z" transform="translate(-752.359 -519.196)" fill="#f6d3a8"/>
                  <g id="Group_58" data-name="Group 58">
                    <path id="Path_170" data-name="Path 170" d="M758.336,480.751s1.525,8.88,0,10.9-6.754-1.413-8.931-4.641-2.614-10.495,1.089-11.1A6.85,6.85,0,0,1,758.336,480.751Z" transform="translate(-747.737 -475.807)" fill="#f6d3a8"/>
                  </g>
                </g>
                <path id="Path_171" data-name="Path 171" d="M780.962,444.463s19.865-12.495,21.466-15.057,6.088-21.626,6.088-21.626l3.845.961s-2.243,21.3-2.884,23.547-20.184,23.066-24.67,23.066-6.088-5.766-3.845-10.893Z" transform="translate(-766.209 -400.28)" fill="#6db8ff"/>
              </g>
            </g>
          </g>
        </g>
        <path id="Path_172" data-name="Path 172" d="M751.938,466.444s1.015-3.483-1.161-5.222-5.948-1.451-6.526-.871c0,1.015,2.322,1.6,1.741,2.175s-3.626,0-4.353,3.046.29,3.626.29,3.626-1.6,1.885.29,4.5,6.146,4.765,7.208,4.486.481-4.34.481-4.34-2.466-.29-2.612-1.885,1.161-1.741,1.741-1.161.725,1.885,1.161,1.6-.146-3.336-.146-3.336a6.115,6.115,0,0,0,1.885-2.61Z" transform="translate(-731.774 -432.645)" fill="#544db8"/>
      </g>
      <g id="_3131096048832" transform="translate(168.495 198.607)">
        <path id="Path_173" data-name="Path 173" d="M769.575,883.092l-14.918,4.092a7.758,7.758,0,0,0-5.413,9.5l2.821,10.288a7.758,7.758,0,0,0,9.5,5.413l4.472-1.226,4.4,4.353,1.568-5.991,4.472-1.226a7.758,7.758,0,0,0,5.413-9.5l-2.821-10.288a7.758,7.758,0,0,0-9.5-5.413Z" transform="translate(-748.97 -882.82)" fill="#9570ed"/>
        <g id="Group_64" data-name="Group 64" transform="translate(7.372 11.75)">
          <path id="Path_174" data-name="Path 174" d="M785.1,954.636a1.711,1.711,0,1,1-2.1-1.2A1.712,1.712,0,0,1,785.1,954.636Z" transform="translate(-781.737 -949.254)" fill="#fff"/>
          <path id="Path_175" data-name="Path 175" d="M818.519,945.465a1.711,1.711,0,1,1-2.1-1.2A1.712,1.712,0,0,1,818.519,945.465Z" transform="translate(-807.639 -942.147)" fill="#fff"/>
          <path id="Path_176" data-name="Path 176" d="M851.939,936.306a1.711,1.711,0,1,1-2.1-1.2A1.712,1.712,0,0,1,851.939,936.306Z" transform="translate(-833.541 -935.047)" fill="#fff"/>
        </g>
      </g>
      <path id="Path_177" data-name="Path 177" d="M505.872,827.026a2.756,2.756,0,1,1-2.756-2.756A2.755,2.755,0,0,1,505.872,827.026Z" transform="translate(-387.795 -638.835)" fill="#ffc13f"/>
      <path id="Path_178" data-name="Path 178" d="M955.942,748.366a2.756,2.756,0,1,1-2.756-2.756A2.756,2.756,0,0,1,955.942,748.366Z" transform="translate(-736.613 -577.871)" fill="#ff4f72"/>
      <g id="_3131096056320" transform="translate(294.787 7.716)">
        <path id="Path_179" data-name="Path 179" d="M1317.278,38.786l3-1.732A1.476,1.476,0,0,0,1318.8,34.5l-5.181,2.992Z" transform="translate(-1312.884 -34.3)" fill="#ea4335"/>
        <path id="Path_180" data-name="Path 180" d="M1317,53.544a1.476,1.476,0,0,0,.74-2.754l-5.181-2.992a1.476,1.476,0,0,0-1.476,2.556l5.181,2.992A1.457,1.457,0,0,0,1317,53.544Z" transform="translate(-1310.35 -44.608)" fill="#4285f4"/>
        <path id="Path_181" data-name="Path 181" d="M1357.74,58.473a1.458,1.458,0,0,0,.736-.2l5.181-2.992-3.613-1.323L1357,55.717a1.476,1.476,0,0,0,.74,2.754Z" transform="translate(-1345.932 -49.537)" fill="#fbbc04"/>
        <path id="Path_182" data-name="Path 182" d="M1362.935,40.244a1.476,1.476,0,0,0,.74-2.754l-5.181-2.992a1.476,1.476,0,0,0-1.476,2.556l5.181,2.992A1.458,1.458,0,0,0,1362.935,40.244Z" transform="translate(-1345.947 -34.3)" fill="#0f9d58"/>
      </g>
    </g>
  </g>
</svg>
